<svg width="118" height="18" viewBox="0 0 118 18" fill="none" xmlns="http://www.w3.org/2000/svg">
<path d="M9.21984 0.199999C10.8038 0.199999 12.2278 0.439999 13.4918 0.92C14.7558 1.4 15.7558 2.112 16.4918 3.056C17.2438 3.984 17.6198 5.12 17.6198 6.464H12.5558C12.5558 5.776 12.2518 5.224 11.6438 4.808C11.0358 4.376 10.2998 4.16 9.43584 4.16C8.18784 4.16 7.24384 4.496 6.60384 5.168C5.96384 5.824 5.64384 6.76 5.64384 7.976V9.512C5.64384 10.728 5.96384 11.672 6.60384 12.344C7.24384 13 8.18784 13.328 9.43584 13.328C10.2998 13.328 11.0358 13.128 11.6438 12.728C12.2518 12.312 12.5558 11.784 12.5558 11.144H8.81184V7.784H17.6198V17H14.8838L14.3558 15.368C12.8518 16.648 10.8838 17.288 8.45184 17.288C5.71584 17.288 3.65984 16.576 2.28384 15.152C0.907843 13.712 0.219843 11.576 0.219843 8.744C0.219843 5.944 0.995843 3.824 2.54784 2.384C4.11584 0.927999 6.33984 0.199999 9.21984 0.199999ZM33.652 17L32.956 14.672H27.172L26.476 17H21.052L27.076 0.487999H33.244L39.268 17H33.652ZM28.276 10.976H31.852L30.124 5.096H30.028L28.276 10.976ZM50.7877 4.712V17H45.4837V4.712H40.0597V0.487999H56.1877V4.712H50.7877ZM71.42 17V10.736H65.588V17H60.284V0.487999H65.588V6.512H71.42V0.487999H76.724V17H71.42ZM81.9562 0.487999H96.2362V4.448H87.2602V6.728H94.9402V10.52H87.2602V13.04H96.4042V17H81.9562V0.487999ZM116.628 5.552C116.628 6.56 116.356 7.472 115.812 8.288C115.268 9.104 114.476 9.704 113.436 10.088L117.108 17H111.156L108.228 10.976H106.26V17H100.956V0.487999H111.06C112.244 0.487999 113.252 0.719999 114.084 1.184C114.932 1.632 115.564 2.248 115.98 3.032C116.412 3.8 116.628 4.64 116.628 5.552ZM111.228 5.768C111.228 5.336 111.084 4.976 110.796 4.688C110.508 4.4 110.156 4.256 109.74 4.256H106.26V7.304H109.74C110.156 7.304 110.508 7.16 110.796 6.872C111.084 6.568 111.228 6.2 111.228 5.768Z" fill="white"/>
</svg>
