<svg width="123" height="15" viewBox="0 0 123 15" fill="none" xmlns="http://www.w3.org/2000/svg">
<path d="M0 0H123V15H0L5 7.5L0 0Z" fill="white"/>
<path d="M13.9081 11.1C12.9548 11.1 12.2048 10.87 11.6581 10.41C11.1181 9.95 10.8315 9.27667 10.7981 8.39C10.7915 8.21 10.7881 7.91667 10.7881 7.51C10.7881 7.09667 10.7915 6.79667 10.7981 6.61C10.8315 5.74333 11.1215 5.07667 11.6681 4.61C12.2215 4.13667 12.9681 3.9 13.9081 3.9C14.5015 3.9 15.0315 3.99667 15.4981 4.19C15.9715 4.38333 16.3448 4.66333 16.6181 5.03C16.8915 5.39667 17.0348 5.83 17.0481 6.33C17.0481 6.39 17.0248 6.44 16.9781 6.48C16.9381 6.52 16.8881 6.54 16.8281 6.54H15.4081C15.3148 6.54 15.2448 6.52333 15.1981 6.49C15.1581 6.45 15.1215 6.38 15.0881 6.28C14.9948 5.95333 14.8515 5.72667 14.6581 5.6C14.4715 5.46667 14.2215 5.4 13.9081 5.4C13.1548 5.4 12.7648 5.82 12.7381 6.66C12.7315 6.84 12.7281 7.11667 12.7281 7.49C12.7281 7.86333 12.7315 8.14667 12.7381 8.34C12.7648 9.18 13.1548 9.6 13.9081 9.6C14.2148 9.6 14.4648 9.53333 14.6581 9.4C14.8581 9.26667 15.0015 9.04 15.0881 8.72C15.1148 8.62 15.1515 8.55333 15.1981 8.52C15.2448 8.48 15.3148 8.46 15.4081 8.46H16.8281C16.8881 8.46 16.9381 8.48 16.9781 8.52C17.0248 8.56 17.0481 8.61 17.0481 8.67C17.0348 9.17 16.8915 9.60333 16.6181 9.97C16.3448 10.3367 15.9715 10.6167 15.4981 10.81C15.0315 11.0033 14.5015 11.1 13.9081 11.1ZM21.3387 11.1C20.392 11.1 19.6487 10.87 19.1087 10.41C18.5753 9.95 18.3087 9.26 18.3087 8.34V4.26C18.3087 4.18667 18.332 4.12667 18.3787 4.08C18.4253 4.02667 18.4853 4 18.5587 4H19.9287C20.002 4 20.062 4.02667 20.1087 4.08C20.162 4.12667 20.1887 4.18667 20.1887 4.26V8.32C20.1887 8.73333 20.2853 9.04333 20.4787 9.25C20.6787 9.45667 20.962 9.56 21.3287 9.56C21.6953 9.56 21.9753 9.45667 22.1687 9.25C22.3687 9.03667 22.4687 8.72667 22.4687 8.32V4.26C22.4687 4.18667 22.492 4.12667 22.5387 4.08C22.592 4.02667 22.6553 4 22.7287 4H24.0887C24.162 4 24.222 4.02667 24.2687 4.08C24.322 4.12667 24.3487 4.18667 24.3487 4.26V8.34C24.3487 9.26 24.082 9.95 23.5487 10.41C23.0153 10.87 22.2787 11.1 21.3387 11.1ZM26.1941 11C26.1274 11 26.0674 10.9767 26.0141 10.93C25.9674 10.8767 25.9441 10.8167 25.9441 10.75V4.26C25.9441 4.18667 25.9674 4.12667 26.0141 4.08C26.0607 4.02667 26.1207 4 26.1941 4H28.9441C29.8241 4 30.5107 4.2 31.0041 4.6C31.5041 5 31.7541 5.56333 31.7541 6.29C31.7541 6.75667 31.6441 7.15333 31.4241 7.48C31.2107 7.80667 30.9141 8.06 30.5341 8.24L31.8841 10.68C31.9041 10.72 31.9141 10.7567 31.9141 10.79C31.9141 10.8433 31.8941 10.8933 31.8541 10.94C31.8141 10.98 31.7641 11 31.7041 11H30.2941C30.1007 11 29.9641 10.91 29.8841 10.73L28.7841 8.56H27.8241V10.75C27.8241 10.8233 27.7974 10.8833 27.7441 10.93C27.6974 10.9767 27.6374 11 27.5641 11H26.1941ZM28.9341 7.09C29.2207 7.09 29.4374 7.02 29.5841 6.88C29.7374 6.73333 29.8141 6.53333 29.8141 6.28C29.8141 6.02667 29.7374 5.82333 29.5841 5.67C29.4374 5.51667 29.2207 5.44 28.9341 5.44H27.8241V7.09H28.9341ZM32.8072 11C32.7539 11 32.7039 10.98 32.6572 10.94C32.6172 10.8933 32.5972 10.8433 32.5972 10.79C32.5972 10.75 32.6005 10.72 32.6072 10.7L34.9372 4.29C35.0039 4.09667 35.1372 4 35.3372 4H36.8972C37.0972 4 37.2305 4.09667 37.2972 4.29L39.6272 10.7C39.6339 10.72 39.6372 10.75 39.6372 10.79C39.6372 10.8433 39.6139 10.8933 39.5672 10.94C39.5272 10.98 39.4805 11 39.4272 11H38.1272C37.9672 11 37.8539 10.9267 37.7872 10.78L37.4272 9.81H34.8072L34.4472 10.78C34.3805 10.9267 34.2672 11 34.1072 11H32.8072ZM35.2272 8.31H37.0072L36.1172 5.76L35.2272 8.31ZM41.7816 11C41.7082 11 41.6449 10.9767 41.5916 10.93C41.5449 10.8833 41.5216 10.8233 41.5216 10.75V5.63H39.7616C39.6882 5.63 39.6249 5.60667 39.5716 5.56C39.5249 5.51333 39.5016 5.45333 39.5016 5.38V4.26C39.5016 4.18667 39.5249 4.12667 39.5716 4.08C39.6249 4.02667 39.6882 4 39.7616 4H45.1916C45.2649 4 45.3249 4.02667 45.3716 4.08C45.4249 4.12667 45.4516 4.18667 45.4516 4.26V5.38C45.4516 5.45333 45.4249 5.51333 45.3716 5.56C45.3249 5.60667 45.2649 5.63 45.1916 5.63H43.4316V10.75C43.4316 10.8233 43.4049 10.8833 43.3516 10.93C43.3049 10.9767 43.2449 11 43.1716 11H41.7816ZM46.8792 11C46.8126 11 46.7526 10.9767 46.6992 10.93C46.6526 10.8767 46.6292 10.8167 46.6292 10.75V4.25C46.6292 4.17667 46.6526 4.11667 46.6992 4.07C46.7526 4.02333 46.8126 4 46.8792 4H48.3092C48.3826 4 48.4426 4.02333 48.4892 4.07C48.5359 4.11667 48.5592 4.17667 48.5592 4.25V10.75C48.5592 10.8167 48.5359 10.8767 48.4892 10.93C48.4426 10.9767 48.3826 11 48.3092 11H46.8792ZM53.1202 11.1C52.1736 11.1 51.4269 10.87 50.8802 10.41C50.3336 9.95 50.0436 9.27333 50.0102 8.38C50.0036 8.19333 50.0002 7.90667 50.0002 7.52C50.0002 7.13333 50.0036 6.84333 50.0102 6.65C50.0369 5.77 50.3269 5.09333 50.8802 4.62C51.4402 4.14 52.1869 3.9 53.1202 3.9C54.0469 3.9 54.7869 4.14 55.3402 4.62C55.9002 5.09333 56.1936 5.77 56.2202 6.65C56.2336 7.03667 56.2402 7.32667 56.2402 7.52C56.2402 7.72 56.2336 8.00667 56.2202 8.38C56.1869 9.27333 55.8969 9.95 55.3502 10.41C54.8102 10.87 54.0669 11.1 53.1202 11.1ZM53.1202 9.6C53.4669 9.6 53.7436 9.49667 53.9502 9.29C54.1569 9.07667 54.2669 8.75333 54.2802 8.32C54.2936 7.93333 54.3002 7.65667 54.3002 7.49C54.3002 7.32333 54.2936 7.05333 54.2802 6.68C54.2669 6.24667 54.1569 5.92667 53.9502 5.72C53.7436 5.50667 53.4669 5.4 53.1202 5.4C52.7669 5.4 52.4869 5.50667 52.2802 5.72C52.0736 5.92667 51.9636 6.24667 51.9502 6.68C51.9436 6.86667 51.9402 7.13667 51.9402 7.49C51.9402 7.85 51.9436 8.12667 51.9502 8.32C51.9636 8.75333 52.0736 9.07667 52.2802 9.29C52.4869 9.49667 52.7669 9.6 53.1202 9.6ZM57.9187 11C57.852 11 57.792 10.9767 57.7387 10.93C57.692 10.8767 57.6687 10.8167 57.6687 10.75V4.26C57.6687 4.18667 57.692 4.12667 57.7387 4.08C57.7853 4.02667 57.8453 4 57.9187 4H59.0487C59.202 4 59.3153 4.06333 59.3887 4.19L61.7487 7.92V4.26C61.7487 4.18667 61.772 4.12667 61.8187 4.08C61.8653 4.02667 61.9253 4 61.9987 4H63.2687C63.342 4 63.402 4.02667 63.4487 4.08C63.4953 4.12667 63.5187 4.18667 63.5187 4.26V10.74C63.5187 10.8133 63.4953 10.8767 63.4487 10.93C63.402 10.9767 63.342 11 63.2687 11H62.1387C61.9853 11 61.872 10.9367 61.7987 10.81L59.4487 7.23V10.75C59.4487 10.8233 59.422 10.8833 59.3687 10.93C59.322 10.9767 59.262 11 59.1887 11H57.9187ZM67.8253 11C67.7586 11 67.6986 10.9767 67.6453 10.93C67.5986 10.8767 67.5753 10.8167 67.5753 10.75V4.26C67.5753 4.18667 67.5986 4.12667 67.6453 4.08C67.692 4.02667 67.752 4 67.8253 4H70.6553C71.522 4 72.202 4.19667 72.6953 4.59C73.1886 4.98333 73.4353 5.56 73.4353 6.32C73.4353 7.08 73.1886 7.65 72.6953 8.03C72.202 8.40333 71.522 8.59 70.6553 8.59H69.5153V10.75C69.5153 10.8167 69.492 10.8767 69.4453 10.93C69.3986 10.9767 69.3386 11 69.2653 11H67.8253ZM70.6053 7.16C70.8786 7.16 71.092 7.09 71.2453 6.95C71.4053 6.80333 71.4853 6.59 71.4853 6.31C71.4853 6.05 71.412 5.84 71.2653 5.68C71.1253 5.52 70.9053 5.44 70.6053 5.44H69.4853V7.16H70.6053ZM73.7841 11C73.7308 11 73.6808 10.98 73.6341 10.94C73.5941 10.8933 73.5741 10.8433 73.5741 10.79C73.5741 10.75 73.5775 10.72 73.5841 10.7L75.9141 4.29C75.9808 4.09667 76.1141 4 76.3141 4H77.8741C78.0741 4 78.2075 4.09667 78.2741 4.29L80.6041 10.7C80.6108 10.72 80.6141 10.75 80.6141 10.79C80.6141 10.8433 80.5908 10.8933 80.5441 10.94C80.5041 10.98 80.4575 11 80.4041 11H79.1041C78.9441 11 78.8308 10.9267 78.7641 10.78L78.4041 9.81H75.7841L75.4241 10.78C75.3575 10.9267 75.2441 11 75.0841 11H73.7841ZM76.2041 8.31H77.9841L77.0941 5.76L76.2041 8.31ZM81.9214 11C81.8547 11 81.7947 10.9767 81.7414 10.93C81.6947 10.8767 81.6714 10.8167 81.6714 10.75V4.26C81.6714 4.18667 81.6947 4.12667 81.7414 4.08C81.7881 4.02667 81.8481 4 81.9214 4H84.6714C85.5514 4 86.2381 4.2 86.7314 4.6C87.2314 5 87.4814 5.56333 87.4814 6.29C87.4814 6.75667 87.3714 7.15333 87.1514 7.48C86.9381 7.80667 86.6414 8.06 86.2614 8.24L87.6114 10.68C87.6314 10.72 87.6414 10.7567 87.6414 10.79C87.6414 10.8433 87.6214 10.8933 87.5814 10.94C87.5414 10.98 87.4914 11 87.4314 11H86.0214C85.8281 11 85.6914 10.91 85.6114 10.73L84.5114 8.56H83.5514V10.75C83.5514 10.8233 83.5247 10.8833 83.4714 10.93C83.4247 10.9767 83.3647 11 83.2914 11H81.9214ZM84.6614 7.09C84.9481 7.09 85.1647 7.02 85.3114 6.88C85.4647 6.73333 85.5414 6.53333 85.5414 6.28C85.5414 6.02667 85.4647 5.82333 85.3114 5.67C85.1647 5.51667 84.9481 5.44 84.6614 5.44H83.5514V7.09H84.6614ZM90.6562 11C90.5828 11 90.5195 10.9767 90.4662 10.93C90.4195 10.8833 90.3962 10.8233 90.3962 10.75V5.63H88.6362C88.5628 5.63 88.4995 5.60667 88.4462 5.56C88.3995 5.51333 88.3762 5.45333 88.3762 5.38V4.26C88.3762 4.18667 88.3995 4.12667 88.4462 4.08C88.4995 4.02667 88.5628 4 88.6362 4H94.0662C94.1395 4 94.1995 4.02667 94.2462 4.08C94.2995 4.12667 94.3262 4.18667 94.3262 4.26V5.38C94.3262 5.45333 94.2995 5.51333 94.2462 5.56C94.1995 5.60667 94.1395 5.63 94.0662 5.63H92.3062V10.75C92.3062 10.8233 92.2795 10.8833 92.2262 10.93C92.1795 10.9767 92.1195 11 92.0462 11H90.6562ZM95.7538 11C95.6872 11 95.6272 10.9767 95.5738 10.93C95.5272 10.8767 95.5038 10.8167 95.5038 10.75V4.26C95.5038 4.18667 95.5272 4.12667 95.5738 4.08C95.6205 4.02667 95.6805 4 95.7538 4H96.8838C97.0372 4 97.1505 4.06333 97.2238 4.19L99.5838 7.92V4.26C99.5838 4.18667 99.6072 4.12667 99.6538 4.08C99.7005 4.02667 99.7605 4 99.8338 4H101.104C101.177 4 101.237 4.02667 101.284 4.08C101.33 4.12667 101.354 4.18667 101.354 4.26V10.74C101.354 10.8133 101.33 10.8767 101.284 10.93C101.237 10.9767 101.177 11 101.104 11H99.9738C99.8205 11 99.7072 10.9367 99.6338 10.81L97.2838 7.23V10.75C97.2838 10.8233 97.2572 10.8833 97.2038 10.93C97.1572 10.9767 97.0972 11 97.0238 11H95.7538ZM103.261 11C103.194 11 103.134 10.9767 103.081 10.93C103.034 10.8767 103.011 10.8167 103.011 10.75V4.26C103.011 4.18667 103.034 4.12667 103.081 4.08C103.128 4.02667 103.188 4 103.261 4H107.981C108.054 4 108.114 4.02667 108.161 4.08C108.214 4.12667 108.241 4.18667 108.241 4.26V5.25C108.241 5.32333 108.214 5.38333 108.161 5.43C108.114 5.47667 108.054 5.5 107.981 5.5H104.821V6.77H107.761C107.834 6.77 107.894 6.79667 107.941 6.85C107.994 6.89667 108.021 6.95667 108.021 7.03V7.94C108.021 8.01333 107.994 8.07667 107.941 8.13C107.894 8.17667 107.834 8.2 107.761 8.2H104.821V9.5H108.061C108.134 9.5 108.194 9.52667 108.241 9.58C108.294 9.62667 108.321 9.68667 108.321 9.76V10.75C108.321 10.8233 108.294 10.8833 108.241 10.93C108.194 10.9767 108.134 11 108.061 11H103.261ZM109.977 11C109.91 11 109.85 10.9767 109.797 10.93C109.75 10.8767 109.727 10.8167 109.727 10.75V4.26C109.727 4.18667 109.75 4.12667 109.797 4.08C109.844 4.02667 109.904 4 109.977 4H112.727C113.607 4 114.294 4.2 114.787 4.6C115.287 5 115.537 5.56333 115.537 6.29C115.537 6.75667 115.427 7.15333 115.207 7.48C114.994 7.80667 114.697 8.06 114.317 8.24L115.667 10.68C115.687 10.72 115.697 10.7567 115.697 10.79C115.697 10.8433 115.677 10.8933 115.637 10.94C115.597 10.98 115.547 11 115.487 11H114.077C113.884 11 113.747 10.91 113.667 10.73L112.567 8.56H111.607V10.75C111.607 10.8233 111.58 10.8833 111.527 10.93C111.48 10.9767 111.42 11 111.347 11H109.977ZM112.717 7.09C113.004 7.09 113.22 7.02 113.367 6.88C113.52 6.73333 113.597 6.53333 113.597 6.28C113.597 6.02667 113.52 5.82333 113.367 5.67C113.22 5.51667 113.004 5.44 112.717 5.44H111.607V7.09H112.717Z" fill="black"/>
</svg>
