<svg width="310" height="91" viewBox="0 0 310 91" fill="none" xmlns="http://www.w3.org/2000/svg">
<g clip-path="url(#clip0)">
<path d="M32.6304 82.2791C32.6304 82.2101 32.6304 82.141 32.7001 81.9798L32.7699 81.8417C32.7699 81.7726 32.7699 81.7726 32.7001 81.7726H32.6304V81.5654L32.7001 81.3582H32.6304C32.6304 81.3582 32.6304 81.3582 32.5606 81.2891L32.6304 81.151C32.7001 81.0128 32.7001 80.9437 32.7001 80.8516C32.7001 79.1939 33.3513 75.5101 34.584 69.8232L34.5142 69.5469C34.5142 69.2706 34.7933 68.6029 34.8863 68.2576C34.8863 67.4748 35.2585 66.738 35.5376 65.794L36.5609 62.6858C36.6307 62.3865 37.0028 61.5346 37.0726 61.1662C37.3516 60.2222 37.9563 57.6205 38.0261 57.0449L39.0494 53.0158L39.8402 50.4831L40.4914 48.5261C40.7007 47.9505 40.7938 47.1677 41.1426 46.7993V46.6612C40.8635 47.1677 40.4914 47.8124 40.0495 48.457C38.5145 50.9897 37.4912 52.7164 36.9795 53.6604C35.8864 55.5254 34.3514 57.7817 33.5607 58.9329C33.4909 59.1401 33.2816 59.7157 33.1885 60.0841L33.1188 60.4525C32.9094 61.0971 32.4676 61.903 31.8163 62.916C31.4442 63.4916 31.1651 63.5607 30.8628 64.1363L30.8163 64.4817L29.2115 67.3596L28.6301 68.0734L28.4905 67.7971C28.4207 67.7971 28.4207 67.8662 28.4905 67.9352C28.4905 68.4418 28.1184 69.2246 27.3974 70.3988C26.3741 71.9874 25.5135 73.6452 24.6995 75.3029C24.6298 75.5101 24.2576 76.0166 24.1879 76.2469C24.1879 76.6843 23.8157 77.329 23.2343 78.1118C22.7924 78.8255 22.4435 79.5623 22.211 80.3451C22.211 80.5523 22.0017 80.9898 21.9086 81.22C21.8621 81.5654 21.8621 82.141 21.8621 82.2101C21.6528 82.8547 21.0713 83.9368 20.048 85.3874C19.4666 86.2623 19.0945 86.6767 19.0247 86.7688C18.6526 87.0451 18.6526 87.4135 17.7223 86.9069L17.3501 87.1141C17.1408 87.2523 16.978 87.3214 16.9082 87.3214L16.257 86.8839L15.8151 87.8509C15.6058 88.2193 15.3732 88.5647 15.2337 88.933C15.0942 89.4396 14.7918 89.3014 14.4429 89.1402C14.2336 89.0021 13.7917 89.0712 13.7917 89.7849C13.722 89.854 13.4196 90.1533 13.3498 90.3605L13.2568 90.4296C12.373 89.7158 10.9311 89.0482 10.4194 88.1272C10.2101 87.9891 10.1403 87.4135 10.2101 86.4695C10.3496 85.5255 10.4194 85.019 10.4194 84.9499L10.4892 84.5815C10.5589 84.3743 10.6287 84.2131 10.6287 84.1441H10.5589H10.4892C10.4892 84.075 10.7683 83.3613 10.7683 83.2692H10.6985H10.6287C10.6287 83.2001 10.838 82.4863 10.838 82.3942C11.4195 79.1479 13.3266 72.517 16.4431 62.4095V61.949L17.2339 59.5776C17.3734 59.071 17.606 58.058 17.8153 57.5515L18.7689 55.18C19.4201 53.5223 20.2341 50.8515 20.7457 49.6312C20.9551 49.0556 21.5365 47.467 21.8389 46.8914L22.932 43.2766L23.7227 40.6059L19.7224 47.3058C18.9317 48.6642 17.0245 51.7034 16.7454 52.3481L16.6059 52.9237C16.3035 53.4302 15.8151 54.0749 15.5826 54.2821L10.4194 63.0081L9.25651 64.8731L8.1634 66.8301L7.65174 67.6129C7.72151 67.7511 7.72151 67.8201 7.72151 67.8892C7.51219 68.9022 6.93075 70.0534 5.90742 71.2737C4.44219 73.0696 4.02356 73.0696 3.79098 73.2998C3.65144 73.3689 3.34909 73.2307 3.00023 73.0235L2.48856 73.2307L2.04667 73.3689C1.81409 73.1156 0.720984 72.0565 0.209318 71.3888C0 71.1125 0 70.0304 0 69.9613V69.8232L0.0697727 69.6851L0 69.593V69.4548L0.0697727 69.3167H0V69.2476V69.0864L0.0697727 68.9483C0.0697727 67.2215 0.651212 64.1823 1.81409 59.7848V59.5776C1.81409 59.3704 2.09318 58.7948 2.18621 58.4954C2.18621 57.9198 2.48856 57.3442 2.83742 56.6305C3.11651 55.8477 3.55841 54.7656 3.79098 54.167C3.86076 53.9597 4.23288 53.223 4.30265 52.9467C4.605 52.1639 5.02363 49.9075 5.09341 49.6312C5.09341 49.5622 5.16318 49.1247 5.39575 48.2728C5.60507 47.3289 5.83765 46.6842 5.97719 46.2467C6.27954 45.3028 7.00053 43.0694 7.20984 42.5629L7.34939 41.7801C7.34939 41.5038 7.72151 41.1354 7.72151 41.0664C7.86106 40.6289 7.93083 39.9842 8.0006 39.9152C8.0006 39.8461 8.20992 39.7079 8.20992 39.6389L8.86113 37.7739H8.81462C8.74484 37.4976 8.95416 37.3595 9.02393 37.2904L9.09371 37.2214L11.3497 31.3042C11.4427 30.9358 12.0939 29.7156 12.0939 29.4853V29.2781C12.1637 29.0709 12.373 28.8407 12.4661 28.7716C12.9079 27.8276 13.4894 26.7455 14.2801 25.5252C14.3499 25.318 15.0011 24.2359 15.2337 23.8675C15.6058 23.361 16.6292 21.9105 16.7687 21.8414L16.8385 21.7033C16.9082 21.473 16.978 21.473 17.0478 21.5651L17.1176 21.427C17.2571 21.1277 17.3501 21.1967 17.5595 21.1967C17.7688 21.1277 17.8385 20.8283 18.1409 20.8974L18.2107 20.8283L18.2804 20.7593C18.5828 20.7593 19.7457 21.1967 19.7457 21.4039C19.7457 21.473 20.1876 21.9795 20.1876 22.2789C20.1876 22.3479 20.3969 22.3479 20.3969 22.417V22.5551V22.8314C20.4667 23.1538 20.9783 23.9366 21.0481 24.4431C21.1179 24.6503 21.2109 24.8806 21.1179 25.0878L19.955 28.3341C19.6759 29.209 18.513 31.3042 18.1409 32.1561C17.9316 32.6626 17.6292 33.8138 17.5595 34.1131C17.0478 35.3334 16.0942 38.1423 15.8849 38.9482C15.8849 39.0172 15.7454 39.3856 15.6756 39.4547V40.0303C15.443 40.8822 15.0011 42.2636 14.4197 44.0595C14.3499 44.4969 14.2104 44.9344 14.0476 45.2797C14.5592 44.4048 14.9314 43.6911 15.2802 43.1846C16.8152 40.6519 19.4433 36.6227 23.2343 30.9128C23.4436 30.6135 23.8855 29.8998 24.1181 29.8307C24.3274 29.4623 24.6995 28.9558 24.7693 28.7486C25.6531 27.7355 26.8857 27.0908 28.5603 26.8836C28.9324 26.5153 29.4441 26.3771 30.0255 26.4462C30.3046 26.5153 30.6767 26.5843 31.0488 26.8146C32.0024 26.8836 32.7932 27.0218 33.5374 27.3902C34.7701 27.9658 35.3515 28.6795 35.0026 29.6235L31.2814 39.5007C31.0023 40.2145 30.7698 42.1024 30.7698 42.3096C30.4907 43.3918 29.979 44.7732 29.4673 46.3388C29.1882 47.1216 28.9557 47.1216 28.7463 47.7893V48.2268C28.444 49.1017 27.7928 51.2659 27.2811 52.6244L26.6997 53.7755C26.6997 53.4993 26.5601 53.269 26.4904 53.4993V53.7065C26.5601 54.3511 26.2113 55.5714 25.5368 57.3903C24.5832 59.8308 23.7227 62.3635 23.0715 64.9652L23.8623 63.6067C24.0716 63.3074 24.746 62.2253 25.0251 61.88L26.3973 59.2092L27.63 56.9068L30.3976 51.8646L32.2815 48.7563L33.7467 46.523C33.956 46.1546 34.1188 45.6481 34.3282 45.3718L35.0491 44.3588L36.0027 42.701C36.0725 42.4938 36.3748 42.3327 36.4446 42.2636L38.1191 39.6619H38.0494L37.9796 39.5928C38.0494 39.3856 38.2587 39.2244 38.4913 39.0172L38.6308 38.9482C40.0263 36.9221 42.8637 32.4554 43.794 31.2351C44.0731 30.7286 45.2592 29.4393 45.329 29.14L45.3988 28.8407C45.6081 28.5644 45.9104 28.3341 45.9802 28.2651C46.864 27.1139 47.8641 25.9627 48.9572 24.8115C49.0269 24.8115 50.1898 23.5221 50.4922 23.2228C51.0736 22.6472 52.1667 21.496 52.5388 21.496L52.6086 21.3579L52.7481 21.2198C52.8179 21.2198 52.8179 21.2198 52.8179 21.2888C53.1203 21.1507 53.19 20.9204 53.3994 21.0816C53.7715 20.9435 53.911 20.8744 53.9808 20.8744C53.9808 20.9435 53.9808 20.9435 54.0506 20.8744H54.1203C54.3994 20.8744 55.2134 21.5191 55.1437 21.5881C55.1437 21.6572 55.1437 21.7263 55.2134 21.9565C55.2832 22.1637 55.353 22.3249 55.2832 22.463L55.353 22.5321L55.4228 22.6012C55.4228 22.6703 55.4228 22.7393 55.353 22.8084V22.9465C55.353 23.3149 55.4925 24.0287 55.4925 24.5352C55.4925 24.6733 55.4925 24.8345 55.4228 24.9727L55.6321 25.4101C55.9112 26.1929 56.074 26.7915 56.0042 27.1369C55.9344 27.5053 55.353 28.7946 54.4692 31.097C54.0273 32.2482 52.7947 34.7118 52.4225 35.7939C52.1435 36.3695 51.7016 37.82 51.6318 38.1653C50.3294 41.9182 49.6549 43.7832 49.6549 43.8753C49.5851 44.0825 49.4456 44.4509 49.3758 44.5199C49.3758 44.7272 49.306 45.1646 49.306 45.2337C49.0967 46.1777 48.585 47.6742 47.9106 49.7694L46.6779 53.8907C46.236 55.3412 45.515 57.2752 45.1429 58.1501C45.0732 58.4264 45.1429 58.7257 45.1429 59.0941L45.2127 59.3704C45.1429 59.8769 45.0034 60.5906 44.7708 61.3965C44.5615 61.903 44.2591 61.903 44.1894 62.4095L44.2591 62.7088C44.0498 63.0772 43.8172 64.2975 43.6079 65.0803L43.2358 65.6559C43.166 65.5868 43.0963 65.5177 43.0265 65.5868C43.2358 65.9552 43.0963 66.6689 42.7474 67.682C42.2357 69.0404 42.0264 70.4909 41.6543 72.0105C41.5845 72.2177 41.445 72.7242 41.445 72.9545C41.3752 73.0235 41.445 73.3919 41.3752 73.5991C41.3752 73.8984 41.0031 74.474 41.0031 74.6812C40.7938 75.395 40.631 76.1317 40.5612 76.9146C40.5612 77.1218 40.4914 77.5592 40.4914 77.7895C40.4914 78.1579 40.7007 78.5723 40.7007 78.8025C40.631 79.4472 40.3984 80.7596 39.6076 82.4173L38.7238 84.2822C38.5145 84.4894 38.3517 84.6506 38.2819 84.8578C38.2122 84.9269 37.9098 84.9269 37.2586 84.7887C37.1888 84.7887 37.1191 84.8578 37.0493 84.9959L36.9097 85.2032L36.5376 85.5715C36.4679 85.5025 34.1421 84.8578 33.2583 84.052C32.9327 83.7296 32.7234 82.2791 32.6304 82.2791Z" fill="white"/>
<path d="M70.6797 44.8429L70.61 44.9119C70.61 44.981 70.61 45.0501 70.6797 45.0501H70.7495V45.1882L70.6797 45.2573H70.7495C70.8193 45.2573 70.8193 45.3264 70.7495 45.3954V45.4645V46.4776L70.9588 46.6157C71.0286 46.7538 71.1682 47.1222 71.2612 47.7669C71.2612 48.0662 71.1216 48.9181 71.1914 49.2174C71.1914 49.2865 71.331 49.793 71.331 49.8621L71.61 51.5198C71.6798 51.5889 71.6798 51.6579 71.6798 51.727L71.7496 51.7961L71.8194 51.8651C72.0287 52.4407 72.4008 54.0294 72.4706 54.3287V55.618H72.5403L72.9822 55.8253C73.1218 55.8943 73.1916 56.1015 73.1916 56.3318C73.2613 56.4008 72.9822 56.6081 73.052 56.7002H73.1916C73.1916 56.9074 73.3311 57.1376 73.3311 57.3448C73.4009 57.483 73.3311 57.552 73.2613 57.552L73.1916 57.6211L73.052 57.6902C73.773 57.552 73.4241 58.1276 73.4241 58.1276C73.4241 58.5651 73.5637 58.9105 73.7963 59.2788C73.866 59.2788 74.0986 59.7163 74.0986 59.7854V59.9235C74.0986 60.1307 74.1684 60.361 74.3777 60.43C74.5172 60.5682 74.5172 60.6372 74.8196 60.6372H75.0289C75.1684 60.7063 75.2382 61.0747 75.1685 61.6503C75.0987 62.0878 75.0987 62.295 75.0987 62.364C75.0289 62.4331 74.9591 62.5713 74.9591 62.6633L74.2381 63.1699C74.1684 63.1699 73.9591 63.6764 73.866 63.6764L71.0984 65.196C71.0286 65.265 70.1448 65.196 70.075 65.265L70.0053 65.196V65.1269V65.196C69.796 65.196 69.9355 65.0578 69.796 65.0578L69.7262 65.1269V65.0578L69.6564 64.9888C69.0052 64.7125 68.1912 63.6994 67.2609 62.0417H67.0516C67.0516 61.9726 66.9818 61.6733 66.912 61.6043C66.6329 61.6043 66.6329 61.2359 66.6329 61.0977V60.9596L66.1213 61.6733C65.2375 62.9627 64.4467 63.6304 63.7955 63.9066C63.0048 64.275 61.9116 64.4822 60.5162 64.6895C59.4231 64.7585 58.1207 64.3901 56.6554 63.6073C56.4461 63.4001 55.9345 63.2389 55.6321 62.8936L55.4926 62.6173C54.4692 61.6043 54.4692 61.7424 54.4692 61.397C54.0971 60.8905 53.818 60.3149 53.4459 59.6702L53.3761 59.7393H53.2598C53.1901 59.6702 53.1203 59.463 53.1901 59.2328V59.1637C52.1667 55.2036 51.6551 53.1084 51.6551 53.0394C51.5853 52.671 51.5853 51.3816 51.5155 51.0823L51.376 50.9442C51.376 50.737 51.5155 50.4377 51.5155 50.3686C51.5853 49.2865 51.7248 48.1353 51.9574 46.915C52.097 46.5466 52.2365 45.4645 52.3295 45.2573C52.5389 44.6817 52.9807 43.3923 53.1203 43.3003C53.1901 43.3003 53.1901 43.2312 53.1901 43.1621V43.047H53.2598L53.3296 43.1161C53.3296 42.9088 53.3994 42.7477 53.5389 42.7477H53.6785C53.8878 42.6786 53.8878 42.4714 54.1901 42.4714C54.2599 42.4714 54.2599 42.4714 54.2599 42.4714L54.3297 42.4023C54.6088 42.3332 55.9345 42.6095 56.0042 42.6786C56.0042 42.7477 56.074 42.8168 56.3066 42.8858L56.7485 43.2542C57.1206 43.2542 56.9578 43.5305 57.2601 43.5305C57.6323 44.1061 58.7951 44.4745 58.9347 44.981V47.5136C59.0045 48.1583 58.7951 50.1153 58.8649 50.9672C58.8649 51.0363 58.9347 51.5428 59.1673 52.6249C59.5394 54.651 59.7487 55.8713 59.958 56.3088V56.4469C60.0278 56.585 60.2371 56.8844 60.2371 56.9534L60.8883 58.5421L61.0279 57.8283L61.307 57.4599L61.5163 57.529C61.3767 57.2527 61.4465 56.7462 61.7256 55.9404C62.1675 54.7892 62.5163 53.5689 62.7489 52.1875C62.7489 51.9803 62.8885 51.6119 62.8885 51.4047C62.9582 51.1974 62.8885 50.9672 62.9582 50.76C62.9582 50.5528 63.2373 50.0463 63.3304 49.816C63.5397 49.1713 63.6327 48.5267 63.7025 47.859C63.7025 47.6518 63.7723 47.3525 63.7723 47.1452C63.7723 46.8459 63.5629 46.3624 63.5629 46.2703C63.6327 45.4875 64.0048 44.6126 64.7258 43.6686C65.1677 43.093 65.4468 42.7247 65.6794 42.6556C65.8887 42.5865 66.1213 42.4484 66.191 42.3793C66.2608 42.3102 66.4934 42.4484 66.9818 42.6556C67.0516 42.6556 67.1213 42.6556 67.1911 42.5865H67.3307L67.7028 42.5174C68.2144 42.8858 69.3075 43.6686 69.9588 44.037C70.2379 44.2673 70.61 44.8429 70.6797 44.8429Z" fill="white"/>
<path d="M79.4244 59.7169L79.4941 59.786V59.7169C79.5639 59.7169 79.5639 59.7169 79.6337 59.786L79.7035 59.8551L79.7732 59.786C79.7035 59.7169 79.843 59.7169 79.9128 59.9242C82.4013 60.4307 85.0062 60.4307 87.7041 60.0623L87.8436 59.9932C87.8436 60.0623 87.8436 60.0623 87.9134 60.1314C88.0529 60.3386 88.1227 60.4077 88.1925 60.3386C88.2622 60.2695 88.2622 60.1314 88.1925 59.9702C88.1925 59.9702 88.1925 59.9702 88.1227 59.9011C88.6344 59.763 88.9134 59.6939 89.0065 59.6018C89.2856 59.5327 89.8903 58.9571 89.7972 58.8881C89.3553 58.2434 88.7739 58.3125 87.9831 58.9571C87.8436 59.0953 87.7738 59.2334 87.6808 59.3946L86.6575 58.4506C85.5644 57.4376 84.7736 56.7929 84.0991 56.2864C83.8898 56.0792 83.5875 55.9871 83.3781 55.918L83.0991 55.5496L82.9595 55.3424C82.5176 54.9049 81.9362 54.6977 81.9362 54.6287C81.8664 54.6287 81.7966 54.3524 81.7269 54.2603L80.2616 52.6716L80.1919 52.7407H80.1221C79.9128 52.6716 79.9128 52.4644 79.9128 52.2342V52.096C79.2616 49.7936 79.4011 46.0407 80.7966 44.383C81.3082 43.8765 82.0292 43.37 83.0525 43.0016L83.1921 42.8634C83.4712 42.8634 83.8433 42.8634 83.9131 42.7944C85.3085 42.4951 86.5412 42.2878 87.6343 42.2188C88.5878 42.1497 89.239 42.0806 89.6112 42.1497C91.0764 42.0806 91.8672 42.3569 92.0067 42.449H92.1462C92.2858 42.449 92.3556 42.449 92.3556 42.5181V42.6102H92.4951C92.7044 42.6102 92.7044 42.6793 92.7044 42.7483L92.7742 42.8174C92.9835 42.8865 93.2161 42.9555 93.2161 43.1858C93.2161 43.2549 93.2161 43.2549 93.2859 43.3239C93.2859 43.5311 92.7044 44.6133 92.6347 44.6823C92.5649 44.6823 92.1928 45.1198 91.9834 45.1198V45.1889C91.8439 45.327 91.9137 45.327 91.7044 45.327C91.3322 45.4651 90.8206 45.9717 90.5415 45.9717C89.4484 45.7645 88.5646 45.6954 87.9134 45.8335C86.8203 46.0407 86.3086 46.4782 86.5179 47.0538C86.797 47.3301 86.797 48.0668 87.0994 48.0668C87.9831 48.5043 88.1227 47.7675 88.4716 48.7806C88.4018 48.7115 88.4018 48.7115 88.332 48.7115C88.4018 49.0799 88.6111 49.5864 89.053 50.3002C89.5647 51.083 90.1461 51.7507 90.7973 52.2572C91.5881 52.9019 92.9137 54.2833 93.1928 54.4905C93.4022 54.6977 94.2162 54.7668 94.2859 54.7668C94.9372 55.0431 95.4488 55.4115 95.8907 55.918C96.4024 56.4245 96.1 56.6317 96.4722 57.1383L96.7512 57.4145C97.1234 58.773 96.8908 60.1544 96.1 61.4437C95.8907 61.6509 95.5186 61.8121 95.1465 62.0193L94.9372 62.0884C95.0069 62.0193 95.0069 61.8812 95.0069 61.8121C95.0069 61.6049 94.9372 61.674 94.7278 61.9503C94.5185 62.3186 93.7045 62.5259 92.4021 62.8252L87.8901 63.8382C87.5878 63.8382 86.9365 63.9764 86.6575 63.9764C86.5877 63.9764 86.076 64.1145 85.7039 64.1836C85.6341 64.1836 85.262 64.1836 84.4713 64.2526C83.9596 64.2526 83.3781 64.2526 82.7269 64.3908L82.0059 64.5289C81.7966 64.5289 81.3547 64.7361 81.285 64.7361C80.3314 64.8052 79.3081 64.6671 78.1452 64.2987C76.3311 63.7231 76.3311 63.4238 76.0985 63.2166C76.0288 63.1475 76.0985 62.9403 76.3079 62.5028L76.0985 62.1344L75.959 61.7661C76.2381 61.4668 77.3312 60.1774 78.1452 59.6018C78.6336 59.4867 79.6569 59.6479 79.4244 59.7169ZM87.8901 59.9932H87.9599C88.0297 59.9241 88.0994 59.9242 88.1692 59.9242L87.7273 59.4176C87.7273 59.6479 87.7971 59.786 87.8901 59.9932Z" fill="white"/>
<path d="M106.614 64.5512H106.545H106.405V64.6203H106.265H106.196V64.6893H106.126H105.986C104.242 65.0577 102.405 64.4821 100.591 63.1007L100.381 63.0316L99.9394 62.456C99.9394 62.3869 99.5673 62.0876 99.5673 62.0186C99.4975 61.9495 99.4277 61.3739 99.4277 61.3048C99.2882 60.6601 99.2184 60.1536 99.2184 59.7852C99.2184 59.578 99.2882 59.2096 99.2882 59.0024C99.2882 58.634 99.0091 57.4828 98.9161 57.1375C98.8463 56.1935 98.7765 55.5488 98.8463 55.2495C98.8463 54.6739 99.0556 53.6609 99.2184 53.1544C99.0789 52.9471 99.1486 52.5788 99.358 52.3715C99.4975 52.0953 99.358 51.865 99.358 51.7269H99.4277C99.4975 51.6578 99.5673 51.6578 99.5673 51.5887L99.7766 50.6447H99.7068L99.637 50.5757L99.8464 50.3685C100.056 50.0001 100.288 49.0101 100.567 47.4905C100.637 47.2833 100.846 46.8458 100.846 46.6156L100.707 46.5235C100.707 46.4544 100.916 46.3853 100.916 46.3163C101.056 45.9479 101.288 45.5334 101.637 45.096C101.637 44.7276 102.288 43.9448 102.591 43.9448V43.8757L102.661 43.9448H102.73C102.8 43.9448 102.661 43.8067 102.87 43.8067L103.009 43.8757C103.591 43.8757 103.591 43.8757 103.591 43.8757H103.661C104.754 44.0139 105.335 44.152 105.475 44.2441L105.847 44.3823C106.126 44.4513 106.358 44.5204 106.428 44.5895C106.428 44.6585 106.428 44.6585 106.498 44.6585H106.638L106.94 44.8658C107.452 45.073 108.684 45.5795 108.684 45.8097C108.754 46.0169 108.684 46.3853 108.545 47.03C108.545 47.3984 108.033 48.2503 107.963 48.6186C107.893 48.8259 107.893 49.2633 107.893 49.4936C107.754 50.0001 107.452 51.3585 107.452 51.6578V51.9341C107.382 51.9341 107.382 51.9341 107.452 52.0032L107.521 52.1413C107.521 52.9241 107.312 54.8811 107.382 55.3877C107.382 56.1705 106.8 56.8382 107.103 56.8382L107.475 57.1375C107.614 57.2066 107.684 57.4138 107.684 57.644C107.684 57.7131 107.312 57.7131 107.405 57.9203H107.545V58.3578L107.405 58.4959C107.266 58.565 107.196 58.565 107.126 58.565C107.335 58.634 107.498 58.7031 107.498 58.7722H107.428C107.289 58.9794 107.219 59.2096 107.219 59.2787L107.149 59.3478L106.94 59.6241C106.8 59.7622 106.731 59.8313 106.731 59.9234V59.9924H106.8V60.1997C106.8 60.568 106.87 60.7753 106.87 60.9825C106.94 61.1897 107.242 61.4199 107.242 61.489L107.452 61.6271V62.1337L107.591 62.2718L107.661 62.3409L107.731 62.41C107.359 64.4361 107.359 64.1368 107.01 64.367L106.614 64.5512ZM105.8 37.0607C105.591 36.9916 104.847 36.7613 104.777 36.7613V36.6923H104.707H104.637V36.6232H104.498V36.5541H104.568C104.196 36.3469 103.986 36.0476 103.986 35.6792L103.847 35.6101V35.5411H103.777C103.777 35.4029 103.777 35.4029 103.986 35.4029C103.986 35.2648 104.196 35.2648 104.358 35.2648L104.428 35.1957C104.498 35.1266 104.498 35.0576 104.428 34.9885C104.358 34.9194 104.358 34.9194 104.358 34.8504V34.6892C104.126 34.459 104.428 34.551 104.428 34.3208L104.358 34.2517H104.428H104.498C104.568 34.2517 104.568 34.2517 104.498 34.1827H104.568C104.637 34.1136 104.637 34.1136 104.637 34.0445C104.707 33.9754 104.777 33.8373 104.777 33.538C104.777 33.4689 104.917 33.3308 104.847 33.3308L104.777 33.2617H104.847H104.917L105.358 32.8243C105.428 32.8243 105.568 32.617 105.637 32.617L105.777 32.4789C105.917 32.4098 106.079 32.3408 106.219 32.3408V32.2256H106.289H106.358C106.358 32.1566 106.428 32.1566 106.498 32.2256H106.638C106.707 32.1566 106.847 32.1566 107.079 32.2256H107.219C108.242 32.4328 108.824 32.594 108.963 32.7322L109.335 32.9394C109.545 33.0084 109.777 33.0775 109.847 33.1466L109.987 33.2157C110.056 33.2157 110.196 33.2847 110.359 33.4229C110.94 33.6301 111.894 34.1366 112.033 34.2978C112.103 34.4359 112.103 34.6662 112.033 35.0115C112.033 35.2187 111.661 35.518 111.591 35.5871V35.7022V35.9095L111.522 36.1167C111.452 36.1857 111.452 36.2548 111.522 36.3239L111.452 36.393H111.522L111.638 36.4851V36.6923V36.8534H111.777H111.708C111.708 36.8534 111.708 36.8534 111.638 36.8534H111.708C111.638 36.8534 111.638 36.9225 111.708 36.9916L111.777 37.0607H111.638C111.638 37.1297 111.708 37.1988 111.777 37.1988C111.777 37.2679 111.847 37.2679 112.057 37.406H112.266C112.405 37.4751 112.405 37.5442 112.196 37.6132C112.126 37.6132 112.126 37.6132 112.057 37.6823H111.917C111.638 37.7744 111.498 37.8665 111.405 37.8665C111.126 37.8665 111.405 37.9356 110.033 37.7283H109.754H109.615H109.475L105.8 37.0607ZM111.777 36.8534C111.708 36.8534 111.708 36.8534 111.708 36.8534C111.708 36.8534 111.708 36.8534 111.777 36.8534C111.777 36.9225 111.777 36.9225 111.847 36.9225L111.777 36.8534Z" fill="white"/>
<path d="M129.403 61.5126V61.5817L129.194 61.6507L128.984 61.7889V61.858C128.984 61.927 128.915 61.9961 128.705 62.0652H128.566C125.868 63.4236 122.728 64.0913 119.03 63.9301L118.751 63.9992L117.588 63.5617C117.007 63.3545 116.704 63.2624 116.635 63.1933C116.425 63.0552 116.123 62.7559 115.751 62.3184C115.1 61.5356 114.588 60.7989 114.216 60.016C114.007 59.7167 113.844 58.7958 113.844 58.7267C113.332 56.9308 113.053 55.7796 112.96 55.3422C112.751 53.8917 112.751 52.6714 112.89 51.7274C113.03 50.7835 113.402 49.4941 114.053 47.8364L114.193 47.1227C114.402 46.8233 114.704 46.478 114.704 46.4089C114.983 46.0405 115.216 45.3959 115.216 45.3268C115.286 45.2577 115.495 45.1196 115.588 45.1196C115.96 44.6131 116.309 44.0375 116.821 43.5309H116.751H116.681L117.193 43.1625C119.309 41.643 121.054 40.6299 122.356 40.2846C122.868 40.2155 124.333 39.9162 124.403 39.9162L124.542 39.8471C124.752 39.778 125.124 39.8471 125.193 39.8471C126.496 39.778 127.659 39.9162 128.775 40.2155C129.496 40.4227 130.078 40.6529 130.45 40.8602C131.613 41.5048 132.194 41.8732 132.264 41.9423L132.334 42.0114C132.403 42.0114 132.473 42.0114 132.543 42.0804L132.473 42.1495H132.613C132.822 42.2186 132.752 42.2876 132.752 42.3567L132.822 42.4258L133.101 42.8632C133.101 42.9323 133.101 42.9323 133.171 43.0014H133.241C133.241 43.2086 133.241 44.0144 133.031 44.0144C132.962 44.0144 132.892 44.0835 132.822 44.2216C132.682 44.3598 132.543 44.4289 132.38 44.4289C132.241 44.4289 132.38 44.567 132.078 44.567L131.938 44.6361C131.357 44.8433 130.403 45.3498 129.961 45.2117C129.38 45.0735 128.426 44.7051 127.194 44.1295C124.496 42.7481 124.124 42.9093 123.472 43.6921C122.821 44.4058 122.31 45.2807 122.1 46.2247C121.961 46.2247 121.961 46.5931 121.961 46.7313V46.8694C121.589 49.8395 121.379 51.4742 121.379 51.8426C121.379 52.6254 121.077 54.0068 121.077 54.214C120.937 54.3522 121.449 54.6515 121.589 54.7896C121.728 54.9968 121.798 55.2961 121.798 55.6645C121.798 55.8717 121.519 55.9408 121.589 56.1711L121.728 56.2401C121.728 56.3092 121.798 56.8157 121.798 57.115C121.868 57.2532 121.798 57.3222 121.658 57.3222L121.449 57.4604C121.961 57.3913 121.961 57.5985 121.728 57.8288C121.658 57.8978 121.658 57.8978 121.658 57.9669C121.449 58.5425 121.449 59.049 121.589 59.4865C121.589 59.6937 121.589 59.7628 121.658 59.8549C121.658 59.9239 121.798 59.9239 121.798 59.993C122.007 60.2002 122.1 60.3614 122.17 60.3614C122.449 60.5686 122.751 60.6377 123.124 60.5686C123.635 60.4995 123.705 60.3614 123.914 60.2923L124.054 60.1542C124.705 59.6477 126.31 59.003 126.612 58.7728C127.124 58.5655 128.077 57.8288 128.357 57.7597C128.868 57.4834 129.24 57.1841 129.45 57.5525C129.519 57.6216 129.519 57.6906 129.589 57.6906L130.101 57.4834C130.171 57.4834 130.473 57.3453 130.543 57.2762H130.612C130.822 58.059 131.333 58.8648 131.194 59.5786C131.054 60.2233 130.031 60.96 129.822 61.1672C129.845 61.3054 129.403 61.4435 129.403 61.5126Z" fill="white"/>
<path d="M134.359 81.4277C134.359 81.3587 134.498 81.1515 134.498 81.0594H134.429C134.359 81.0594 134.359 81.0594 134.359 80.9903V80.8522L134.429 80.714H134.359L134.289 80.6449L134.359 80.5068C134.429 80.4377 134.429 80.3687 134.429 80.2996C134.289 78.2044 134.871 74.889 136.243 70.2842L136.173 70.077L136.615 68.8567C136.685 68.212 136.987 67.3371 137.406 66.6234C137.778 65.9787 138.289 64.5973 138.568 63.9526C138.778 63.6763 139.15 62.9396 139.22 62.6633C139.592 61.7193 140.243 59.2788 140.313 58.9795L141.336 55.3647L142.801 51.5427L142.941 50.6678C143.011 50.4606 143.313 50.0232 143.383 49.9541C143.453 49.6548 143.592 49.2403 143.592 49.0101V48.8029C143.662 48.5957 143.894 48.5266 143.894 48.4345C144.174 47.7208 144.406 47.0761 144.546 46.4775H144.476L144.406 46.4084C144.406 46.3393 144.476 46.04 144.685 45.971L144.755 45.9019C145.127 45.027 145.639 42.9548 146.36 39.7085C146.43 39.3401 146.941 37.9817 146.941 37.6824L146.871 37.4061C146.964 37.1298 147.197 36.8535 147.267 36.8535C147.546 35.9095 147.918 34.9886 148.36 33.9755C148.29 34.0446 148.29 34.0446 148.22 34.0446C147.941 34.1136 147.127 34.1827 147.057 34.2518L146.988 34.3899C146.918 34.3899 146.848 34.3899 146.778 34.3209L146.639 34.2518C145.988 34.3209 145.267 34.2518 144.383 34.2518H143.22C142.708 34.1136 141.825 34.1827 141.685 33.8834C141.615 33.8834 141.476 33.9525 141.406 33.8834C141.406 33.9525 141.127 33.515 141.034 33.515C140.917 33.446 140.708 33.3769 140.708 33.1697C140.638 33.1006 140.638 33.1006 140.638 33.1006L140.569 33.0315C140.499 32.6631 140.196 31.581 140.429 31.3047C140.499 31.2357 140.569 30.591 140.801 30.3608V30.2226C140.662 30.0154 140.941 30.0845 140.941 29.7852C141.313 29.2786 141.452 27.9893 141.825 27.9893C141.964 27.9202 142.615 27.8511 143.801 27.6209C144.313 27.5518 145.546 27.5518 146.127 27.5518C146.406 27.4828 147.011 27.2756 147.22 27.2756L149.918 26.6309H150.127L150.197 26.5618C150.267 26.5618 150.337 26.5618 150.407 26.4927L150.476 26.3546L152.593 25.7099L154.477 25.1343C154.546 25.0653 155.198 24.9962 156.593 24.7659C156.733 24.7659 156.872 24.3976 157.035 24.2594C157.244 24.0522 157.547 23.891 157.919 23.822C158.128 23.822 158.291 24.0292 158.5 23.9601L158.57 23.822C158.779 23.7529 159.361 23.5457 159.733 23.4536C159.942 23.3845 160.012 23.3845 160.105 23.4536L160.175 23.7299C160.175 23.0852 160.826 23.2233 161.059 23.2233C161.779 23.1543 162.431 22.924 163.105 22.5787C163.687 22.5787 163.617 22.2103 164.408 22.2103C164.78 22.1412 165.059 22.0031 165.431 21.7728L165.803 21.4735C166.012 21.4045 166.082 21.0361 166.175 20.967C166.478 20.7598 167.129 20.6907 168.059 20.7598C168.71 20.8289 169.082 20.8289 169.152 20.8979C169.431 21.1051 169.594 20.7598 169.873 21.911C169.943 21.911 170.013 21.9801 170.175 22.1182L170.548 22.3254C170.687 23.2003 171.059 24.4897 171.059 25.6409C171.059 25.8481 170.617 26.6539 170.617 26.723H170.548C170.175 26.723 170.617 26.9302 170.338 26.9302H170.268V26.9993V27.0683L170.152 27.1835H170.013C169.501 27.69 168.408 28.1965 167.896 28.4728C167.385 28.68 165.338 29.4168 165.129 29.4168L165.059 29.624C164.989 29.624 164.547 29.7621 164.477 29.7621C164.105 30.1305 163.826 30.1305 163.314 30.1305C162.803 30.1996 162.082 30.4298 161.779 30.4298C161.57 30.4298 161.198 30.4989 160.989 30.4989C160.477 30.7061 159.384 31.2126 159.105 31.2817C158.803 31.558 157.64 31.9954 157.291 32.0645C157.221 32.0645 157.221 32.0645 157.151 32.1336C157.081 32.502 156.779 33.6532 156.36 35.5181C156.081 36.6002 155.267 39.0408 154.965 39.9157C154.895 40.4913 154.593 41.6425 154.523 42.149L153.57 45.1881C153.128 46.4775 152.918 47.3524 152.849 47.7898C152.779 47.8589 152.639 48.2964 152.639 48.3654C152.569 48.5727 152.569 48.941 152.569 49.0101C152.128 50.7369 150.453 55.7101 149.872 57.0224C149.43 58.3118 148.406 60.0616 148.127 60.8444C148.058 61.0516 148.058 61.2818 148.127 61.6272V61.9265C148.127 62.433 147.988 63.0086 147.616 63.7224C147.546 64.0908 147.104 64.0908 147.034 64.5973L147.104 64.8045C146.895 65.311 146.592 66.3241 146.313 66.9687L145.941 67.4753C145.871 67.4062 145.802 67.3371 145.639 67.4062C146.011 67.9127 145.778 68.4192 145.499 68.8567L145.36 69.2251C144.848 70.4453 144.336 71.7577 144.057 73.1161C144.057 73.1852 143.918 73.5536 143.918 73.7608C144.057 73.968 143.848 74.7048 143.639 75.1192C143.429 75.7639 143.36 76.4085 143.266 77.2144C143.127 77.6518 143.197 78.5037 143.406 79.0793C143.266 80.1614 142.685 81.3817 141.592 82.8322C140.057 84.8583 139.545 84.8583 139.266 85.1346C139.057 85.572 138.475 84.8583 138.313 84.8583L137.801 85.0655L137.22 85.3188C136.94 85.0425 135.475 83.8683 134.824 83.0164C134.522 82.7171 134.452 81.635 134.359 81.4277Z" fill="white"/>
<path d="M164.826 44.4286L165.036 44.3596C165.106 44.2905 165.175 44.2905 165.245 44.2905C165.175 44.2214 165.175 44.2214 165.245 44.2214H165.454C165.524 44.1523 165.594 44.1523 165.664 44.1523L165.594 44.0833C165.664 44.0142 165.734 44.0142 165.873 44.0142L166.013 43.9451C168.92 43.3005 173.222 44.1523 176.13 46.5468L176.409 46.685L177.13 47.9052L177.781 48.9874C177.851 49.2636 177.99 49.7702 178.06 50.5069C178.2 51.8884 178.2 53.0396 178.06 54.0526C178.06 54.2598 177.92 54.8354 177.618 55.7103C176.967 57.6674 176.316 59.0258 175.502 59.9007C174.478 61.0519 173.176 61.9959 171.641 62.7096C170.408 63.2852 168.804 63.7227 166.827 63.9989C166.548 64.068 166.175 64.1371 165.873 64.1371C165.803 64.2062 165.594 64.2062 165.361 64.1371H165.129C163.757 64.1371 163.384 64.2062 163.245 64.068C162.454 63.9299 161.71 63.6306 160.919 63.2852L160.849 63.3543C160.849 63.4233 160.849 63.4233 160.849 63.3543C160.64 63.3543 160.477 63.2161 160.408 62.9859L160.338 62.9168C158.082 60.6835 157.058 58.312 156.617 56.2169C156.547 55.6413 156.547 53.8454 156.547 53.7763C156.547 53.5691 156.477 53.5 156.407 53.5C156.407 53.2007 156.617 52.8554 156.617 52.7863C156.989 51.1286 157.5 49.6781 158.221 48.3887C158.733 47.4448 159.175 46.731 159.594 46.3626C160.826 45.1424 161.64 44.4977 161.989 44.4056C162.059 44.4056 162.361 44.1984 162.361 44.1063C162.431 44.1063 162.431 44.1063 162.431 44.1754C162.64 44.1754 162.803 43.9681 163.012 43.9681H163.082C164.036 43.7609 163.873 43.8991 163.966 43.83H164.036L164.478 44.2675C164.617 44.3365 164.687 44.4747 164.78 44.5437C164.826 44.4286 164.826 44.4286 164.826 44.4286ZM165.059 48.0204L164.85 50.6221C164.78 51.1977 164.64 52.9935 164.64 53.8684C164.64 53.9375 164.78 54.375 165.013 55.3189C165.082 56.1017 165.385 57.7595 165.454 58.0588C165.454 58.1969 165.385 58.3351 165.524 58.4962C165.594 59.7165 167.338 60.5914 168.594 59.6474C169.478 59.0028 170.059 58.1278 170.338 57.2069C170.408 57.1378 170.339 56.8385 170.129 56.332C170.059 55.9636 169.99 55.6182 169.99 55.2499C169.92 54.9736 170.199 55.0426 170.129 54.7433L169.99 54.6743C169.99 54.398 169.92 53.8914 169.85 53.5231C169.92 53.3159 169.92 53.2238 169.99 53.1547H170.292C169.501 52.9244 169.78 52.4179 169.78 52.2107C169.85 51.497 169.711 50.7602 169.501 50.1155L169.431 49.9774C169.431 49.5399 169.292 49.6781 169.292 48.9643C169.222 48.596 169.152 48.2506 168.99 48.0204L168.85 47.652L168.71 47.5138H168.571C167.92 47.0764 167.408 46.9382 167.036 47.0073C166.524 47.2145 166.013 47.5829 165.943 47.5829L165.501 47.7901C165.431 47.8592 165.292 47.7901 165.059 47.5138C165.059 47.5138 165.059 47.5138 164.989 47.5138C165.059 47.7441 165.059 47.8822 165.059 48.0204Z" fill="white"/>
<path d="M203.875 62.088L202.41 63.0319L201.828 63.4003L201.549 63.6075L201.108 64.8278C200.084 67.6367 199.503 69.5247 199.293 70.4456C198.34 73.9913 196.805 77.4449 194.712 80.8985C194.34 81.405 193.177 83.4311 193.177 83.4311C191.804 84.9507 190.409 85.9637 189.014 86.6084C187.618 87.2531 187.339 87.1149 186.246 87.6215L185.734 87.8287C183.548 88.3352 181.571 88.7036 179.757 88.7726C178.966 88.7726 177.943 88.7036 177.78 88.7036L177.85 88.6345C176.757 88.7726 175.292 88.7036 173.478 88.4964C171.594 88.2891 170.64 87.9208 170.57 87.2761C170.57 85.7565 170.78 84.3981 171.594 83.2469L172.547 81.8655C172.989 81.2208 174.431 79.9084 174.803 79.5631C175.106 79.2638 175.827 78.55 176.106 78.3428C176.315 78.0665 176.617 77.6982 177.129 77.2607C177.641 76.7542 179.013 75.8102 179.106 75.603C180.059 74.8202 181.594 73.5769 183.548 71.8501C184.129 71.3436 185.013 70.6298 185.525 70.2614L187.502 68.4656C188.804 67.3144 190.479 66.2323 192.316 65.012L193.107 61.6965L193.246 60.8216L193.456 60.0388C191.479 61.8347 189.665 62.9859 187.851 63.4924C186.827 63.7917 185.525 63.5615 183.92 62.9168C182.385 62.2721 181.292 61.5354 180.711 60.8216L180.501 60.5454L180.129 60.1079C179.687 59.0258 179.478 58.243 179.478 57.7364C179.687 54.6282 180.129 52.2568 180.78 50.599C181.432 48.9413 182.525 46.9843 184.06 44.82C185.153 43.3005 187.269 41.2053 188.641 40.2843C189.595 39.7087 190.688 39.2022 191.991 38.7647C193.363 38.2582 194.247 38.051 194.688 38.051C194.758 38.051 195.572 37.9819 195.642 37.9819V38.005H196.154C196.805 38.005 196.805 38.005 197.177 38.3733C197.898 39.2482 198.27 39.3173 198.061 39.7548C198.061 39.8238 198.131 40.2613 198.131 40.3304C198.061 40.4685 197.758 40.6988 197.177 40.906C196.084 41.4125 196.223 40.975 195.712 40.906C195.363 40.8139 195.13 40.8139 195.061 40.7448C195.061 40.6757 194.991 40.7448 194.921 40.8139L194.851 40.8829C194.781 40.8829 194.781 40.8139 194.851 40.7448C194.781 40.5376 194.409 40.6757 193.828 41.2513C191.502 43.4846 189.828 45.8561 188.804 48.4578C187.572 51.7042 187.572 55.8945 187.781 57.8285C187.781 58.8416 187.572 60.2921 187.92 59.9237C188.711 59.0488 189.525 57.9667 190.409 56.7464C191.363 55.4571 192.386 53.9375 193.479 52.2107L195.363 49.3327L195.502 49.1255C195.712 48.688 195.944 48.1815 196.735 48.0434C198.921 47.6059 203.875 47.0994 204.084 50.3458C204.224 52.3719 204.084 54.6052 203.433 57.0457L202.991 58.7034L203.875 58.1969C204.317 57.9897 204.526 58.0588 204.596 58.266C204.596 58.3351 204.596 58.4041 204.666 58.4041L205.759 57.9667C206.131 57.7595 206.782 57.7595 206.922 57.4601C206.55 58.4732 206.34 59.6935 205.968 60.2C205.48 60.7986 204.829 61.4433 203.875 62.088ZM179.99 85.25C180.199 85.25 180.362 85.25 180.571 85.3191C182.036 85.3191 183.036 85.1809 183.641 84.8816C185.618 83.7995 187.223 82.0036 188.293 79.471C188.944 78.0205 189.758 75.649 190.549 72.4027C185.083 77.0074 181.083 80.7603 178.594 83.6613L178.524 83.9607L178.315 84.5363C177.803 84.4672 177.594 84.4672 177.594 84.6053C177.664 84.7435 177.803 84.9046 178.106 84.9737C178.036 85.1118 178.036 85.25 178.036 85.3421C178.036 85.6184 178.315 85.9177 178.548 85.8486C178.687 85.8486 178.757 85.6414 178.757 85.2039C178.757 85.2039 178.757 85.2039 178.757 85.1349L179.99 85.25ZM178.757 85.1118C178.757 84.7435 178.687 84.6053 178.548 84.5363H178.338L178.129 84.9737L178.757 85.1118ZM195.735 49.9083C195.735 49.9774 195.735 49.9774 195.665 49.9774H195.595C195.665 50.0465 195.665 50.0465 195.735 50.0465V49.9083Z" fill="white"/>
<path d="M223.783 57.3225L223.48 57.9671L223.341 58.1053C223.271 58.1743 223.201 58.2434 223.131 58.2434L223.201 58.3125C223.201 58.3816 222.922 58.5888 222.922 58.6809C222.992 58.6809 222.992 58.6809 222.992 58.7499L222.783 58.8881L222.643 59.0262C220.247 61.3977 216.084 63.4929 212.014 64.2987L211.642 64.3678C210.921 64.2987 210.27 64.2296 209.595 63.9994C208.874 63.7231 208.293 63.4238 207.921 63.0554C207.409 62.5489 206.967 61.9042 206.688 61.0984C206.037 59.5788 205.665 58.2204 205.525 56.839V55.0431C205.525 52.8098 205.735 51.2902 205.967 50.3462C206.409 48.6885 206.991 47.238 207.642 46.0868C209.037 43.8535 210.619 42.0576 212.526 40.538C212.968 40.1697 213.317 39.8934 213.549 39.8243C213.619 39.7552 213.991 39.6171 214.642 39.3869L216.108 38.8803C216.317 38.8113 216.549 38.8113 216.619 38.8113L218.875 38.4429H219.526C222.224 38.7422 225.271 40.3999 226.225 42.1958C226.667 42.9786 226.364 44.4982 226.364 44.9356L226.434 45.2349C226.364 45.4421 226.294 45.6724 226.062 46.0177C224.829 47.9748 224.015 48.6194 222.271 49.6325C221.48 50.0699 220.596 50.5074 219.713 50.7146C217.736 51.2902 216.433 51.5895 215.852 51.4974H215.48L215.177 51.5665V51.4974C214.596 51.6356 214.224 51.6356 214.084 51.4974C213.805 51.4974 213.572 51.4974 213.433 51.4283C213.433 51.4974 213.503 51.6356 213.573 51.7967L213.712 52.2342C213.852 52.6026 213.921 53.017 213.852 53.6156C213.852 53.8919 213.573 53.984 213.642 54.2603L213.782 54.3984C213.782 54.7668 213.921 55.5496 213.921 55.918C213.921 56.1252 213.921 56.4245 213.852 56.4245L213.573 56.4936C214.084 56.7008 214.293 57.1383 214.154 57.9441C214.084 58.5888 213.433 59.809 213.433 60.4077C213.433 60.4767 213.503 60.6149 213.642 60.684H213.921L214.503 60.5458C214.875 60.3386 215.294 59.9702 215.666 59.5328L216.177 58.9572C216.387 58.6579 216.549 58.2434 216.549 58.1743C216.922 57.6678 217.782 56.7929 219.178 55.6417C219.968 54.928 220.48 54.5596 220.643 54.4905C220.852 54.4215 221.015 54.2833 221.154 54.1912C221.224 54.1221 221.434 54.2603 221.806 54.5596L222.178 54.4215C222.387 54.3524 222.55 54.2833 222.55 54.3524C222.62 54.3524 223.713 55.6417 223.945 56.4476C223.992 56.6778 223.922 56.9771 223.783 57.3225ZM213.875 49.9088C214.014 49.8397 214.084 49.8397 214.154 49.8397C214.805 49.5404 216.27 48.6885 216.643 48.4583C218.178 47.8136 218.898 47.0078 218.968 46.1559C219.038 45.5112 218.829 44.9356 218.317 44.4982L218.178 44.4291C218.55 44.0607 218.968 43.0476 218.898 42.5641C218.898 42.4951 218.829 42.3569 218.759 42.2648C218.689 42.1727 218.689 42.1267 218.619 42.1958C217.457 42.403 215.712 45.0047 214.759 47.6064L213.875 49.9088Z" fill="white"/>
<path d="M231.576 67.9351L231.506 67.866L231.366 67.797C231.297 67.797 231.297 67.797 231.227 67.866V67.9351L231.087 67.866L231.018 67.797C230.948 67.7279 230.948 67.7279 230.948 67.797L230.878 67.866L230.739 67.7279L230.669 67.6588C228.994 66.5767 228.041 64.4125 227.901 61.0279L227.762 60.8207C227.971 59.8077 227.552 59.0939 228.064 58.0118C228.134 57.6434 228.343 56.216 228.576 55.5713L229.017 54.2819L229.459 50.8284L230.111 47.2136C230.111 47.1445 230.552 45.8322 231.343 43.3226H231.204L231.134 43.4607C231.064 43.4607 230.925 43.3226 230.855 43.3226C230.483 43.3226 229.971 43.2535 229.32 43.0233C228.808 43.0233 227.785 42.6549 227.575 42.4477C227.575 42.3786 227.436 42.4477 227.436 42.3786V42.2635C227.436 42.2635 227.296 42.2635 227.227 42.0563V41.9642C226.948 41.3195 227.017 41.5267 227.017 41.3886C226.948 40.4446 226.948 39.869 227.157 39.7308L227.227 39.3625L227.436 38.925C227.436 38.5566 227.645 38.7178 227.645 38.4185C227.855 37.8429 228.157 36.8989 228.436 36.7608C228.576 36.6917 229.017 36.6226 229.738 36.7608C230.111 36.7608 230.971 36.968 231.343 37.0601C231.553 37.0601 231.925 36.991 232.134 36.991H233.529C233.599 36.991 233.599 36.991 233.599 36.991C233.878 36.3463 234.181 35.4714 234.623 34.3893L235.506 32.156C235.716 31.7876 236.227 30.8666 236.297 30.6364L236.227 30.4292L236.437 30.222L236.576 30.0838C237.088 29.301 237.669 28.4952 238.32 27.7124C238.832 27.0677 239.111 26.7684 239.204 26.6993C239.995 26.1237 240.507 25.8244 240.576 25.8244L240.646 25.7553C240.716 25.6863 240.716 25.6863 240.786 25.6863L240.856 25.7553L240.925 25.6863L240.995 25.6172H241.135L241.204 25.6863C241.786 25.6863 241.716 25.7553 241.786 25.7553C241.995 25.8244 242.739 26.4691 242.739 26.5381C242.739 26.6072 243.019 26.9756 243.019 27.1828L243.088 27.2519L243.158 27.321V27.4591L243.228 27.5282C243.367 28.0347 244.112 28.7484 244.112 29.0477C244.042 29.4161 243.902 29.9917 243.6 30.8436C243.391 31.4192 242.577 32.8697 242.298 33.5144C242.088 33.8828 241.856 34.8958 241.786 35.103L241.414 36.1161C241.484 36.1161 241.553 36.1161 241.553 36.1852V36.3924C241.623 36.0931 241.856 36.024 242.065 36.0931H242.205C242.716 36.1621 243.228 36.0931 243.74 35.9549H243.879C244.019 35.9549 244.251 35.6556 244.6 35.8858C244.879 35.8858 245.112 35.8168 245.321 35.6786C245.623 35.6786 245.693 35.1721 245.902 35.1721C246.112 35.034 246.554 35.034 247.205 35.2412C247.577 35.3793 247.856 35.4484 247.926 35.5405C247.996 35.6326 248.065 35.6786 248.135 35.6786C248.205 35.7477 248.205 35.9779 248.275 36.4614L248.484 36.6687L248.624 36.8759C248.624 36.9449 248.833 38.8329 248.763 39.7539C248.763 39.9611 248.391 40.5367 248.391 40.6288C248.321 40.6978 248.182 40.6288 248.251 40.6978V40.7669H248.182H248.112V40.836V40.9051H248.042H247.972C247.53 41.2734 246.298 41.6188 244.321 41.9872L244.251 42.1253C244.181 42.1253 243.879 42.1253 243.809 42.1944C243.6 42.1944 243.298 42.2635 242.925 42.2635H241.832C241.763 42.2635 241.321 42.1944 241.251 42.1944C240.879 42.1944 239.949 42.4937 239.879 42.5628C239.809 42.5628 239.669 42.5628 239.437 42.6319L238.995 44.2896C238.483 46.0854 238.204 47.3287 238.041 47.9734C237.739 49.1937 236.879 51.4961 236.879 51.5881C236.879 51.6572 237.181 52.5321 237.181 52.6012C237.251 52.9696 237.181 53.5452 237.041 54.1898C236.972 54.5582 236.599 54.6273 236.599 54.9727L236.669 55.1108L236.46 56.9067C236.39 57.206 236.32 57.4132 236.251 57.3441H235.948C236.599 57.7816 236.088 58.3572 236.088 58.7025C235.878 59.6465 235.878 60.4293 236.018 61.2352C236.018 61.7417 236.088 61.8798 236.088 62.3864C236.018 62.6857 236.088 62.8929 236.297 63.031C236.297 63.1001 236.367 63.1692 236.437 63.1692C236.506 63.2382 236.646 63.2382 236.809 63.1692C236.437 63.2382 236.088 63.3764 235.855 63.4455C235.413 63.5836 235.064 63.8138 234.832 64.0211L234.46 64.2973C234.46 64.3664 234.32 64.5967 234.088 64.942C234.018 65.0111 234.018 65.1492 234.018 65.2183C234.018 65.2874 233.948 65.4255 233.948 65.5176C233.739 65.9551 233.367 66.9681 232.855 67.4746C232.878 67.6358 232.46 67.7279 231.576 67.9351ZM236.972 63.2382C236.902 63.2382 236.902 63.2382 236.902 63.2382C236.902 63.2382 236.902 63.2382 236.972 63.2382Z" fill="white"/>
<path d="M268.366 63.4697C268.297 63.5388 267.785 63.8381 267.715 63.8381C267.715 63.9071 267.715 63.9071 267.785 63.9071L267.413 64.1144C267.204 64.1834 267.134 64.2525 267.134 64.3216V64.3906C266.924 64.5979 266.622 64.69 266.413 64.759C259.273 65.8412 259.273 58.4044 259.645 52.0729L259.436 51.7045V51.4052L258.994 51.9117L258.04 52.9938C256.738 54.5134 255.854 55.8027 255.342 56.8158C254.11 59.4866 252.784 61.3515 251.342 62.5948C249.295 64.2525 243.62 61.4436 244.132 59.8549L244.434 58.2663L245.086 56.5395C245.388 55.2502 245.667 54.168 245.667 53.8687C245.737 53.5924 245.946 53.2931 246.039 53.2241C246.411 52.0729 246.69 51.267 246.923 50.7835H246.853H246.783C246.783 50.5763 246.993 50.277 247.086 50.0698L247.225 49.9316C247.807 48.343 248.76 45.1657 249.993 40.3997C250.063 39.8241 250.784 37.729 250.877 37.3606L250.807 36.9922C250.877 36.6929 251.249 36.2094 251.249 36.1173C251.83 34.3905 252.551 32.5025 253.365 30.4304C253.435 30.3613 253.505 29.9239 253.877 29.1411L254.598 27.4143C254.97 26.4703 256.342 23.8686 256.575 23.7304C256.575 23.6614 256.784 23.1548 256.784 23.0858L256.854 23.1548H256.924L257.063 22.8555C257.133 22.5792 257.133 22.4871 257.366 22.4181H257.505C258.226 21.9115 257.784 21.7043 258.296 21.7043C258.366 21.7043 258.366 21.6353 258.435 21.5662L258.505 21.4971C258.784 21.428 260.18 21.7043 260.18 21.9346C260.18 22.1418 260.622 22.6483 260.622 23.2239L260.691 23.293H260.831V24.0067C260.971 24.8816 261.854 26.4473 261.552 27.2531C261.343 28.7727 260.319 31.4434 260.017 32.8709C259.808 33.6537 259.366 34.828 258.854 36.3245C258.342 37.8441 258.063 38.9262 257.831 39.64C257.552 40.5149 257.18 42.3798 256.947 43.0245C256.668 44.1066 256.156 45.6262 255.575 47.5602L255.435 48.0667C256.017 47.5602 256.528 47.1227 257.04 46.7774C257.342 46.5701 257.761 46.409 258.063 46.2018L258.273 46.1327L258.342 46.2708C259.226 45.6262 261.552 44.6822 262.506 45.0506C264.901 45.9255 266.506 47.2839 267.087 48.9416C267.669 50.4612 267.808 51.3131 267.808 53.132C267.808 53.5003 267.669 54.5825 267.599 54.9278C267.599 55.2041 267.669 55.8027 267.599 56.3093C267.599 56.8158 267.227 58.0361 267.227 58.4044L267.018 60.0622C267.087 59.9931 267.157 59.9931 267.227 59.9931C267.436 59.924 267.808 59.6938 268.111 59.6247C268.32 59.5556 268.553 59.6247 268.622 59.8319V59.9701C268.692 60.0391 268.762 60.0391 268.994 59.9701C269.064 59.901 269.134 59.901 269.204 59.901L269.785 59.9701C269.785 60.2463 269.994 61.4896 269.785 61.835C269.599 62.4566 268.599 63.1013 268.366 63.4697ZM261.459 49.1718L261.668 49.0337L261.459 49.1718ZM267.134 62.8941C267.204 63.0322 267.343 63.1013 267.645 63.1013L267.134 62.8941Z" fill="white"/>
<path d="M288.926 57.3214L288.624 57.9661L288.484 58.1042C288.414 58.1733 288.344 58.2424 288.275 58.2424L288.345 58.3114C288.345 58.3805 288.065 58.5877 288.065 58.6798C288.135 58.6798 288.135 58.6798 288.135 58.7489L287.926 58.887L287.786 59.0252C285.391 61.3966 281.228 63.4918 277.158 64.2977L276.762 64.3897C276.041 64.3207 275.39 64.2516 274.716 64.0214C273.995 63.7451 273.413 63.4458 273.041 63.0774C272.529 62.5709 272.087 61.9262 271.808 61.1204C271.157 59.6008 270.785 58.2424 270.646 56.8609V55.0651C270.646 52.8318 270.855 51.3122 271.087 50.3682C271.529 48.7105 272.111 47.26 272.762 46.1088C274.157 43.8755 275.739 42.0796 277.646 40.56C278.088 40.1916 278.437 39.9153 278.669 39.8463C278.739 39.7772 279.111 39.6391 279.762 39.4088L281.228 38.9023C281.437 38.8332 281.67 38.8332 281.739 38.8332L283.995 38.4648H284.647C287.344 38.7642 290.391 40.4219 291.345 42.2177C291.787 43.0006 291.484 44.5201 291.484 44.9576L291.554 45.2569C291.484 45.4641 291.414 45.6943 291.182 46.0397C289.949 47.9967 289.135 48.6414 287.391 49.6545C286.6 50.0919 285.716 50.5294 284.833 50.7366C282.856 51.3122 281.553 51.6115 280.972 51.5194H280.6L280.297 51.5885V51.5194C279.716 51.6575 279.344 51.6575 279.204 51.5194C278.925 51.5194 278.693 51.5194 278.553 51.4503C278.553 51.5194 278.623 51.6575 278.693 51.8187L278.832 52.2562C278.972 52.6245 279.041 53.039 278.972 53.6376C278.972 53.9139 278.693 54.006 278.762 54.2823L278.902 54.4204C278.902 54.7888 279.041 55.5716 279.041 55.94C279.041 56.1472 279.041 56.4465 278.972 56.4465L278.693 56.5156C279.204 56.7228 279.414 57.1602 279.274 57.9661C279.204 58.6108 278.553 59.831 278.553 60.4296C278.553 60.4987 278.623 60.6369 278.762 60.7059H279.088L279.669 60.5678C280.042 60.3606 280.46 59.9922 280.832 59.5547L281.344 58.9791C281.553 58.6798 281.716 58.2654 281.716 58.1963C282.088 57.6898 282.949 56.8149 284.344 55.6637C285.135 54.95 285.647 54.5816 285.809 54.5125C286.019 54.4434 286.182 54.3053 286.321 54.2132C286.391 54.1441 286.6 54.2823 286.972 54.5816L287.344 54.4434C287.554 54.3744 287.717 54.3053 287.717 54.3744C287.786 54.3744 288.879 55.6637 289.112 56.4695C289.135 56.6767 289.065 56.9761 288.926 57.3214ZM279.018 49.9077C279.158 49.8386 279.228 49.8386 279.297 49.8386C279.949 49.5393 281.414 48.6875 281.786 48.4572C283.321 47.8125 284.042 47.0067 284.112 46.1548C284.181 45.5102 283.972 44.9346 283.46 44.4971L283.321 44.428C283.693 44.0597 284.112 43.0466 284.042 42.5631C284.042 42.494 283.972 42.3559 283.902 42.2638C283.833 42.1717 283.833 42.1256 283.763 42.1947C282.6 42.4019 280.856 45.0036 279.902 47.6053L279.018 49.9077Z" fill="white"/>
<path d="M308.235 45.5806C308.235 45.7187 308.026 45.4424 308.026 45.6496H307.956L307.886 45.5806C307.886 45.6496 307.816 45.6496 307.746 45.6496L307.677 45.5806C305.7 45.8569 304.328 46.1562 303.676 46.5246L303.607 46.6627L303.467 46.8008L303.258 46.939C303.258 46.939 302.676 47.4455 302.676 47.5146C302.537 47.5837 302.234 47.883 301.886 48.2283C301.816 48.2974 301.513 48.4355 301.513 48.6658C301.374 48.873 301.141 49.3104 300.862 50.0472C300.583 51.1984 300.351 51.8431 299.769 53.2245C299.769 53.4317 299.909 53.5929 299.63 53.731L299.56 53.8692C299.49 54.0073 299.49 54.1455 299.56 54.3757V54.4448C299.56 54.5138 299.42 54.5138 299.351 54.5829L299.141 55.4578H299.211L299.281 55.5269L299.071 55.7341C298.862 56.2406 298.792 57.2537 298.699 58.6121C298.699 58.8193 298.56 59.3949 298.56 59.487L298.699 59.6251C298.699 59.6942 298.699 59.6942 298.63 59.7633L298.56 59.8324C298.49 60.2698 298.35 60.7763 298.118 61.421C298.048 62.0657 297.909 62.8715 297.536 63.2859C297.467 63.2859 297.467 63.2859 297.467 63.355L297.536 63.4241H297.467H297.397C297.536 63.4241 297.095 63.6313 297.025 63.7234C296.815 63.8615 296.653 63.9306 296.583 63.9306L296.443 64.0688C295.35 64.4371 294.629 64.5062 294.397 64.345L293.955 64.276C293.583 64.276 293.373 64.276 293.304 64.2069C293.304 64.1378 293.234 64.1378 293.164 64.2069H293.024C292.955 64.2069 292.745 64.0688 292.652 64.0688C291.931 63.8615 290.606 63.6313 290.466 63.1939C290.327 62.7564 290.257 62.0427 290.257 61.0296C290.257 60.3849 290.768 58.6581 290.768 58.4279L290.978 57.0695C291.117 56.2867 291.769 54.3987 291.862 53.8922C291.862 53.8231 291.931 53.6159 291.931 53.5238C292.001 53.4547 291.931 53.2245 292.001 53.1554C292.373 51.797 293.094 50.3465 294.187 48.6888C294.397 48.3204 295.071 47.7448 296.001 46.962C296.071 46.8929 296.071 46.8239 296.141 46.5936L296.211 46.3173C296.35 46.1101 296.653 45.8108 297.002 45.5345C297.211 45.4655 297.443 45.5345 297.653 45.3273V45.1892L298.816 44.4754C299.025 44.3373 299.188 44.3373 299.188 44.4064L299.327 44.5445C299.327 44.2682 299.606 44.038 300.118 43.8998C300.769 43.6926 301.583 43.4624 302.374 43.117C302.886 43.117 303.025 42.7486 303.746 42.7486L304.909 42.5414C304.979 42.4723 305.281 42.4033 305.351 42.4033C305.56 42.3342 305.793 42.1961 305.863 42.104C306.374 42.0349 307.095 42.0349 308.049 42.173C308.7 42.2421 309.142 42.3802 309.212 42.4723C309.421 42.5414 309.584 42.5414 309.654 42.6105C309.723 42.6796 309.723 42.8177 309.654 43.1861L309.863 43.3242C310.002 43.4624 310.072 43.5314 310.002 43.5314C310.002 43.7387 309.491 44.8208 309.119 45.3273C309.049 45.4424 308.305 45.5806 308.235 45.5806Z" fill="white"/>
</g>
<path d="M69.6148 9.03752C68.5118 9.03752 67.6545 8.76256 67.0426 8.21265C66.4308 7.66273 66.1087 6.84583 66.0765 5.76195C66.0685 5.53082 66.0645 5.19211 66.0645 4.7458C66.0645 4.29152 66.0685 3.94883 66.0765 3.7177C66.1087 2.65772 66.4388 1.84481 67.0668 1.27895C67.6947 0.713102 68.5441 0.430176 69.6148 0.430176C70.6775 0.430176 71.5228 0.713102 72.1507 1.27895C72.7867 1.84481 73.1208 2.65772 73.153 3.7177C73.1691 4.17995 73.1772 4.52265 73.1772 4.7458C73.1772 4.96098 73.1691 5.2997 73.153 5.76195C73.1208 6.84583 72.7948 7.66273 72.1749 8.21265C71.563 8.76256 70.7097 9.03752 69.6148 9.03752ZM69.6148 7.65078C70.1542 7.65078 70.5809 7.49138 70.8948 7.17259C71.2088 6.8538 71.3779 6.36366 71.402 5.70217C71.4181 5.22399 71.4262 4.90121 71.4262 4.73385C71.4262 4.55054 71.4181 4.22777 71.402 3.76552C71.3779 3.112 71.2048 2.62584 70.8828 2.30705C70.5607 1.98029 70.1381 1.81691 69.6148 1.81691C69.0834 1.81691 68.6568 1.98029 68.3347 2.30705C68.0127 2.62584 67.8436 3.112 67.8275 3.76552C67.8195 3.99664 67.8155 4.31942 67.8155 4.73385C67.8155 5.1403 67.8195 5.46308 67.8275 5.70217C67.8436 6.35569 68.0087 6.84583 68.3227 7.17259C68.6447 7.49138 69.0754 7.65078 69.6148 7.65078Z" fill="white"/>
<path d="M75.886 8.91797C75.8055 8.91797 75.7371 8.89008 75.6807 8.83429C75.6243 8.7785 75.5962 8.71076 75.5962 8.63106V0.848588C75.5962 0.760921 75.6203 0.689193 75.6686 0.633405C75.725 0.577616 75.7974 0.549722 75.886 0.549722H76.8279C76.9809 0.549722 77.0976 0.617465 77.1781 0.752951L80.6318 6.06081V0.848588C80.6318 0.760921 80.656 0.689193 80.7043 0.633405C80.7607 0.577616 80.8331 0.549722 80.9217 0.549722H81.9602C82.0488 0.549722 82.1212 0.577616 82.1776 0.633405C82.2339 0.689193 82.2621 0.760921 82.2621 0.848588V8.6191C82.2621 8.70677 82.2339 8.7785 82.1776 8.83429C82.1212 8.89008 82.0528 8.91797 81.9723 8.91797H81.0183C80.8573 8.91797 80.7365 8.85023 80.656 8.71474L77.2143 3.52643V8.63106C77.2143 8.71076 77.1862 8.7785 77.1298 8.83429C77.0815 8.89008 77.0131 8.91797 76.9245 8.91797H75.886Z" fill="white"/>
<path d="M87.1291 8.91797C87.0486 8.91797 86.9802 8.89008 86.9238 8.83429C86.8674 8.7785 86.8393 8.71076 86.8393 8.63106V2.04405H84.6052C84.5247 2.04405 84.4563 2.01616 84.3999 1.96037C84.3436 1.90458 84.3154 1.83285 84.3154 1.74519V0.848588C84.3154 0.760921 84.3395 0.689193 84.3878 0.633405C84.4442 0.577616 84.5167 0.549722 84.6052 0.549722H90.776C90.8646 0.549722 90.937 0.577616 90.9934 0.633405C91.0498 0.689193 91.0779 0.760921 91.0779 0.848588V1.74519C91.0779 1.83285 91.0498 1.90458 90.9934 1.96037C90.937 2.01616 90.8646 2.04405 90.776 2.04405H88.5541V8.63106C88.5541 8.71076 88.5259 8.7785 88.4695 8.83429C88.4212 8.89008 88.3528 8.91797 88.2642 8.91797H87.1291Z" fill="white"/>
<path d="M91.7446 8.91797C91.6721 8.91797 91.6117 8.89406 91.5634 8.84624C91.5151 8.79842 91.491 8.73865 91.491 8.66692L91.5151 8.55933L94.4134 0.848588C94.4939 0.649344 94.6388 0.549722 94.8481 0.549722H96.1764C96.3858 0.549722 96.5307 0.649344 96.6112 0.848588L99.5094 8.55933L99.5336 8.66692C99.5336 8.73865 99.5054 8.79842 99.449 8.84624C99.4007 8.89406 99.3444 8.91797 99.28 8.91797H98.2052C98.0361 8.91797 97.9194 8.84226 97.855 8.69083L97.2995 7.24432H93.725L93.1695 8.69083C93.1051 8.84226 92.9884 8.91797 92.8193 8.91797H91.7446ZM94.1477 5.85758H96.8768L95.5123 2.17555L94.1477 5.85758Z" fill="white"/>
<path d="M101.784 8.91797C101.703 8.91797 101.635 8.89008 101.578 8.83429C101.522 8.7785 101.494 8.71076 101.494 8.63106V0.848588C101.494 0.760921 101.518 0.689193 101.566 0.633405C101.623 0.577616 101.695 0.549722 101.784 0.549722H104.911C105.902 0.549722 106.675 0.77686 107.23 1.23114C107.794 1.68541 108.075 2.33096 108.075 3.16779C108.075 3.74958 107.934 4.23972 107.653 4.63821C107.371 5.02873 106.976 5.31165 106.469 5.48699L108.22 8.53542C108.244 8.58324 108.256 8.62707 108.256 8.66692C108.256 8.73865 108.228 8.79842 108.172 8.84624C108.124 8.89406 108.067 8.91797 108.003 8.91797H106.892C106.763 8.91797 106.662 8.89008 106.59 8.83429C106.518 8.77053 106.453 8.69083 106.397 8.59519L104.851 5.76195H103.197V8.63106C103.197 8.71076 103.168 8.7785 103.112 8.83429C103.056 8.89008 102.983 8.91797 102.895 8.91797H101.784ZM104.875 4.39912C105.358 4.39912 105.721 4.29551 105.962 4.0883C106.204 3.87311 106.324 3.56229 106.324 3.15583C106.324 2.74938 106.204 2.43856 105.962 2.22337C105.721 2.00022 105.358 1.88864 104.875 1.88864H103.197V4.39912H104.875Z" fill="white"/>
<path d="M110.766 8.91797C110.686 8.91797 110.617 8.89008 110.561 8.83429C110.505 8.7785 110.476 8.71076 110.476 8.63106V0.836633C110.476 0.748966 110.505 0.681223 110.561 0.633405C110.617 0.577616 110.686 0.549722 110.766 0.549722H111.925C112.014 0.549722 112.082 0.577616 112.131 0.633405C112.187 0.681223 112.215 0.748966 112.215 0.836633V8.63106C112.215 8.71076 112.187 8.7785 112.131 8.83429C112.082 8.89008 112.014 8.91797 111.925 8.91797H110.766Z" fill="white"/>
<path d="M118.203 9.03752C117.1 9.03752 116.242 8.76256 115.63 8.21265C115.019 7.66273 114.697 6.84583 114.664 5.76195C114.656 5.53082 114.652 5.19211 114.652 4.7458C114.652 4.29152 114.656 3.94883 114.664 3.7177C114.697 2.65772 115.027 1.84481 115.655 1.27895C116.283 0.713102 117.132 0.430176 118.203 0.430176C119.265 0.430176 120.111 0.713102 120.739 1.27895C121.375 1.84481 121.709 2.65772 121.741 3.7177C121.757 4.17995 121.765 4.52265 121.765 4.7458C121.765 4.96098 121.757 5.2997 121.741 5.76195C121.709 6.84583 121.383 7.66273 120.763 8.21265C120.151 8.76256 119.298 9.03752 118.203 9.03752ZM118.203 7.65078C118.742 7.65078 119.169 7.49138 119.483 7.17259C119.797 6.8538 119.966 6.36366 119.99 5.70217C120.006 5.22399 120.014 4.90121 120.014 4.73385C120.014 4.55054 120.006 4.22777 119.99 3.76552C119.966 3.112 119.793 2.62584 119.471 2.30705C119.149 1.98029 118.726 1.81691 118.203 1.81691C117.671 1.81691 117.245 1.98029 116.923 2.30705C116.601 2.62584 116.431 3.112 116.415 3.76552C116.407 3.99664 116.403 4.31942 116.403 4.73385C116.403 5.1403 116.407 5.46308 116.415 5.70217C116.431 6.35569 116.597 6.84583 116.91 7.17259C117.233 7.49138 117.663 7.65078 118.203 7.65078Z" fill="white"/>
<path d="M128.067 8.91797C127.986 8.91797 127.918 8.89008 127.862 8.83429C127.805 8.7785 127.777 8.71076 127.777 8.63106V0.836633C127.777 0.748966 127.805 0.681223 127.862 0.633405C127.918 0.577616 127.986 0.549722 128.067 0.549722H129.202C129.291 0.549722 129.359 0.577616 129.407 0.633405C129.464 0.681223 129.492 0.748966 129.492 0.836633V7.48341H133.32C133.408 7.48341 133.481 7.51131 133.537 7.5671C133.594 7.62288 133.622 7.69063 133.622 7.77033V8.63106C133.622 8.71076 133.594 8.7785 133.537 8.83429C133.481 8.89008 133.408 8.91797 133.32 8.91797H128.067Z" fill="white"/>
<path d="M135.929 8.91797C135.849 8.91797 135.78 8.89008 135.724 8.83429C135.667 8.7785 135.639 8.71076 135.639 8.63106V0.836633C135.639 0.748966 135.667 0.681223 135.724 0.633405C135.78 0.577616 135.849 0.549722 135.929 0.549722H137.088C137.177 0.549722 137.245 0.577616 137.294 0.633405C137.35 0.681223 137.378 0.748966 137.378 0.836633V8.63106C137.378 8.71076 137.35 8.7785 137.294 8.83429C137.245 8.89008 137.177 8.91797 137.088 8.91797H135.929Z" fill="white"/>
<path d="M142.568 8.91797C142.327 8.91797 142.17 8.80639 142.097 8.58324L139.513 0.908362C139.505 0.884452 139.501 0.848588 139.501 0.80077C139.501 0.729042 139.525 0.669269 139.574 0.62145C139.622 0.573632 139.682 0.549722 139.755 0.549722H140.829C140.934 0.549722 141.019 0.577616 141.083 0.633405C141.148 0.689193 141.192 0.748966 141.216 0.812724L143.233 6.9335L145.261 0.812724C145.277 0.748966 145.318 0.689193 145.382 0.633405C145.447 0.577616 145.531 0.549722 145.636 0.549722H146.723C146.787 0.549722 146.843 0.573632 146.892 0.62145C146.948 0.669269 146.976 0.729042 146.976 0.80077L146.952 0.908362L144.38 8.58324C144.299 8.80639 144.142 8.91797 143.909 8.91797H142.568Z" fill="white"/>
<path d="M149.389 8.91797C149.308 8.91797 149.24 8.89008 149.184 8.83429C149.127 8.7785 149.099 8.71076 149.099 8.63106V0.848588C149.099 0.760921 149.123 0.689193 149.172 0.633405C149.228 0.577616 149.3 0.549722 149.389 0.549722H154.715C154.803 0.549722 154.876 0.577616 154.932 0.633405C154.988 0.689193 155.016 0.760921 155.016 0.848588V1.64955C155.016 1.73722 154.988 1.80894 154.932 1.86473C154.876 1.91255 154.803 1.93646 154.715 1.93646H150.754V4.02852H154.449C154.537 4.02852 154.61 4.05642 154.666 4.11221C154.723 4.16799 154.751 4.23972 154.751 4.32739V5.08053C154.751 5.1682 154.723 5.23993 154.666 5.29571C154.61 5.34353 154.537 5.36744 154.449 5.36744H150.754V7.53123H154.811C154.9 7.53123 154.972 7.55913 155.028 7.61491C155.085 7.66273 155.113 7.73048 155.113 7.81814V8.63106C155.113 8.71873 155.085 8.79045 155.028 8.84624C154.972 8.89406 154.9 8.91797 154.811 8.91797H149.389Z" fill="white"/>
<path d="M161.351 8.91797C161.271 8.91797 161.202 8.89008 161.146 8.83429C161.09 8.7785 161.061 8.71076 161.061 8.63106V0.848588C161.061 0.760921 161.086 0.689193 161.134 0.633405C161.19 0.577616 161.263 0.549722 161.351 0.549722H164.588C165.562 0.549722 166.327 0.77686 166.882 1.23114C167.438 1.68541 167.715 2.3469 167.715 3.21561C167.715 4.07634 167.438 4.72986 166.882 5.17617C166.327 5.6145 165.562 5.83367 164.588 5.83367H162.812V8.63106C162.812 8.71873 162.784 8.79045 162.728 8.84624C162.672 8.89406 162.599 8.91797 162.511 8.91797H161.351ZM164.527 4.49475C164.994 4.49475 165.348 4.38716 165.59 4.17198C165.84 3.94882 165.964 3.62605 165.964 3.20365C165.964 2.78922 165.844 2.46645 165.602 2.23533C165.369 2.0042 165.01 1.88864 164.527 1.88864H162.788V4.49475H164.527Z" fill="white"/>
<path d="M170.169 8.91797C170.088 8.91797 170.02 8.89008 169.963 8.83429C169.907 8.7785 169.879 8.71076 169.879 8.63106V0.848588C169.879 0.760921 169.903 0.689193 169.951 0.633405C170.008 0.577616 170.08 0.549722 170.169 0.549722H173.296C174.287 0.549722 175.059 0.77686 175.615 1.23114C176.178 1.68541 176.46 2.33096 176.46 3.16779C176.46 3.74958 176.319 4.23972 176.038 4.63821C175.756 5.02873 175.361 5.31165 174.854 5.48699L176.605 8.53542C176.629 8.58324 176.641 8.62707 176.641 8.66692C176.641 8.73865 176.613 8.79842 176.557 8.84624C176.509 8.89406 176.452 8.91797 176.388 8.91797H175.277C175.148 8.91797 175.047 8.89008 174.975 8.83429C174.902 8.77053 174.838 8.69083 174.782 8.59519L173.236 5.76195H171.582V8.63106C171.582 8.71076 171.553 8.7785 171.497 8.83429C171.441 8.89008 171.368 8.91797 171.28 8.91797H170.169ZM173.26 4.39912C173.743 4.39912 174.105 4.29551 174.347 4.0883C174.588 3.87311 174.709 3.56229 174.709 3.15583C174.709 2.74938 174.588 2.43856 174.347 2.22337C174.105 2.00022 173.743 1.88864 173.26 1.88864H171.582V4.39912H173.26Z" fill="white"/>
<path d="M179.151 8.91797C179.071 8.91797 179.002 8.89008 178.946 8.83429C178.889 8.7785 178.861 8.71076 178.861 8.63106V0.848588C178.861 0.760921 178.885 0.689193 178.934 0.633405C178.99 0.577616 179.063 0.549722 179.151 0.549722H184.477C184.565 0.549722 184.638 0.577616 184.694 0.633405C184.75 0.689193 184.778 0.760921 184.778 0.848588V1.64955C184.778 1.73722 184.75 1.80894 184.694 1.86473C184.638 1.91255 184.565 1.93646 184.477 1.93646H180.516V4.02852H184.211C184.299 4.02852 184.372 4.05642 184.428 4.11221C184.485 4.16799 184.513 4.23972 184.513 4.32739V5.08053C184.513 5.1682 184.485 5.23993 184.428 5.29571C184.372 5.34353 184.299 5.36744 184.211 5.36744H180.516V7.53123H184.573C184.662 7.53123 184.734 7.55913 184.791 7.61491C184.847 7.66273 184.875 7.73048 184.875 7.81814V8.63106C184.875 8.71873 184.847 8.79045 184.791 8.84624C184.734 8.89406 184.662 8.91797 184.573 8.91797H179.151Z" fill="white"/>
<path d="M190.177 9.03752C189.452 9.03752 188.833 8.92992 188.317 8.71474C187.802 8.49956 187.412 8.21663 187.146 7.86596C186.88 7.51529 186.739 7.13274 186.723 6.71832C186.723 6.65456 186.747 6.59877 186.796 6.55095C186.844 6.49516 186.904 6.46727 186.977 6.46727H188.076C188.164 6.46727 188.237 6.48719 188.293 6.52704C188.349 6.56689 188.402 6.62268 188.45 6.69441C188.531 6.96538 188.712 7.19252 188.994 7.37582C189.283 7.55913 189.678 7.65078 190.177 7.65078C190.741 7.65078 191.163 7.55913 191.445 7.37582C191.735 7.18455 191.88 6.92553 191.88 6.59877C191.88 6.38359 191.807 6.20427 191.662 6.06081C191.517 5.91736 191.296 5.79382 190.998 5.69022C190.708 5.57864 190.274 5.44714 189.694 5.29571C188.744 5.07256 188.048 4.77768 187.605 4.41107C187.162 4.04446 186.941 3.51846 186.941 2.83306C186.941 2.37081 187.069 1.96037 187.327 1.60173C187.585 1.23512 187.951 0.94821 188.426 0.740997C188.909 0.533783 189.469 0.430176 190.105 0.430176C190.773 0.430176 191.348 0.545737 191.831 0.77686C192.322 1.00798 192.693 1.29888 192.942 1.64955C193.2 1.99225 193.337 2.33495 193.353 2.67765C193.353 2.74141 193.329 2.80118 193.281 2.85697C193.232 2.90479 193.172 2.9287 193.099 2.9287H191.952C191.775 2.9287 191.654 2.85697 191.59 2.71351C191.55 2.45848 191.393 2.24728 191.119 2.07992C190.845 1.90458 190.507 1.81691 190.105 1.81691C189.662 1.81691 189.312 1.9006 189.054 2.06796C188.804 2.23533 188.68 2.4784 188.68 2.79719C188.68 3.01238 188.744 3.1917 188.873 3.33515C189.002 3.47861 189.203 3.60613 189.477 3.7177C189.75 3.82131 190.149 3.94086 190.672 4.07634C191.389 4.23574 191.956 4.41506 192.375 4.6143C192.801 4.81354 193.115 5.06459 193.317 5.36744C193.518 5.67029 193.619 6.05683 193.619 6.52704C193.619 7.04508 193.474 7.49537 193.184 7.87792C192.902 8.2525 192.5 8.53941 191.976 8.73865C191.461 8.9379 190.861 9.03752 190.177 9.03752Z" fill="white"/>
<path d="M196.125 8.91797C196.045 8.91797 195.976 8.89008 195.92 8.83429C195.864 8.7785 195.836 8.71076 195.836 8.63106V0.848588C195.836 0.760921 195.86 0.689193 195.908 0.633405C195.964 0.577616 196.037 0.549722 196.125 0.549722H201.451C201.539 0.549722 201.612 0.577616 201.668 0.633405C201.725 0.689193 201.753 0.760921 201.753 0.848588V1.64955C201.753 1.73722 201.725 1.80894 201.668 1.86473C201.612 1.91255 201.539 1.93646 201.451 1.93646H197.49V4.02852H201.185C201.274 4.02852 201.346 4.05642 201.403 4.11221C201.459 4.16799 201.487 4.23972 201.487 4.32739V5.08053C201.487 5.1682 201.459 5.23993 201.403 5.29571C201.346 5.34353 201.274 5.36744 201.185 5.36744H197.49V7.53123H201.547C201.636 7.53123 201.708 7.55913 201.765 7.61491C201.821 7.66273 201.849 7.73048 201.849 7.81814V8.63106C201.849 8.71873 201.821 8.79045 201.765 8.84624C201.708 8.89406 201.636 8.91797 201.547 8.91797H196.125Z" fill="white"/>
<path d="M204.495 8.91797C204.414 8.91797 204.346 8.89008 204.289 8.83429C204.233 8.7785 204.205 8.71076 204.205 8.63106V0.848588C204.205 0.760921 204.229 0.689193 204.277 0.633405C204.334 0.577616 204.406 0.549722 204.495 0.549722H205.436C205.589 0.549722 205.706 0.617465 205.787 0.752951L209.24 6.06081V0.848588C209.24 0.760921 209.265 0.689193 209.313 0.633405C209.369 0.577616 209.442 0.549722 209.53 0.549722H210.569C210.657 0.549722 210.73 0.577616 210.786 0.633405C210.842 0.689193 210.871 0.760921 210.871 0.848588V8.6191C210.871 8.70677 210.842 8.7785 210.786 8.83429C210.73 8.89008 210.661 8.91797 210.581 8.91797H209.627C209.466 8.91797 209.345 8.85023 209.265 8.71474L205.823 3.52643V8.63106C205.823 8.71076 205.795 8.7785 205.738 8.83429C205.69 8.89008 205.622 8.91797 205.533 8.91797H204.495Z" fill="white"/>
<path d="M215.738 8.91797C215.657 8.91797 215.589 8.89008 215.532 8.83429C215.476 8.7785 215.448 8.71076 215.448 8.63106V2.04405H213.214C213.133 2.04405 213.065 2.01616 213.008 1.96037C212.952 1.90458 212.924 1.83285 212.924 1.74519V0.848588C212.924 0.760921 212.948 0.689193 212.996 0.633405C213.053 0.577616 213.125 0.549722 213.214 0.549722H219.385C219.473 0.549722 219.546 0.577616 219.602 0.633405C219.658 0.689193 219.687 0.760921 219.687 0.848588V1.74519C219.687 1.83285 219.658 1.90458 219.602 1.96037C219.546 2.01616 219.473 2.04405 219.385 2.04405H217.163V8.63106C217.163 8.71076 217.134 8.7785 217.078 8.83429C217.03 8.89008 216.961 8.91797 216.873 8.91797H215.738Z" fill="white"/>
<path d="M224.668 9.03752C223.943 9.03752 223.324 8.92992 222.808 8.71474C222.293 8.49956 221.903 8.21663 221.637 7.86596C221.371 7.51529 221.23 7.13274 221.214 6.71832C221.214 6.65456 221.238 6.59877 221.287 6.55095C221.335 6.49516 221.395 6.46727 221.468 6.46727H222.567C222.655 6.46727 222.728 6.48719 222.784 6.52704C222.841 6.56689 222.893 6.62268 222.941 6.69441C223.022 6.96538 223.203 7.19252 223.485 7.37582C223.774 7.55913 224.169 7.65078 224.668 7.65078C225.232 7.65078 225.654 7.55913 225.936 7.37582C226.226 7.18455 226.371 6.92553 226.371 6.59877C226.371 6.38359 226.298 6.20427 226.153 6.06081C226.008 5.91736 225.787 5.79382 225.489 5.69022C225.199 5.57864 224.765 5.44714 224.185 5.29571C223.235 5.07256 222.539 4.77768 222.096 4.41107C221.653 4.04446 221.432 3.51846 221.432 2.83306C221.432 2.37081 221.56 1.96037 221.818 1.60173C222.076 1.23512 222.442 0.94821 222.917 0.740997C223.4 0.533783 223.96 0.430176 224.596 0.430176C225.264 0.430176 225.839 0.545737 226.322 0.77686C226.814 1.00798 227.184 1.29888 227.433 1.64955C227.691 1.99225 227.828 2.33495 227.844 2.67765C227.844 2.74141 227.82 2.80118 227.772 2.85697C227.723 2.90479 227.663 2.9287 227.59 2.9287H226.443C226.266 2.9287 226.145 2.85697 226.081 2.71351C226.041 2.45848 225.884 2.24728 225.61 2.07992C225.336 1.90458 224.998 1.81691 224.596 1.81691C224.153 1.81691 223.803 1.9006 223.545 2.06796C223.295 2.23533 223.171 2.4784 223.171 2.79719C223.171 3.01238 223.235 3.1917 223.364 3.33515C223.493 3.47861 223.694 3.60613 223.968 3.7177C224.241 3.82131 224.64 3.94086 225.163 4.07634C225.88 4.23574 226.447 4.41506 226.866 4.6143C227.293 4.81354 227.607 5.06459 227.808 5.36744C228.009 5.67029 228.11 6.05683 228.11 6.52704C228.11 7.04508 227.965 7.49537 227.675 7.87792C227.393 8.2525 226.991 8.53941 226.467 8.73865C225.952 8.9379 225.352 9.03752 224.668 9.03752Z" fill="white"/>
<defs>
<clipPath id="clip0">
<rect y="20.7368" width="310" height="69.6933" fill="white"/>
</clipPath>
</defs>
</svg>
