<svg width="200" height="70" viewBox="0 0 200 70" fill="none" xmlns="http://www.w3.org/2000/svg">
<path fill-rule="evenodd" clip-rule="evenodd" d="M0 70V0H200V70H0ZM2.31069 67.6952H197.689V45.4243H2.31069V67.6952ZM2.31069 43.1195H197.689V2.3048H2.31069V43.1195ZM67.5248 13.9078C67.5248 14.8298 66.7193 15.5805 65.7422 15.5805C64.7652 15.5805 63.9597 14.8298 63.9597 13.9078C63.9597 12.9859 64.7652 12.222 65.7422 12.222C66.7193 12.222 67.5248 12.9859 67.5248 13.9078ZM16.0692 18.3067H16.2541L21.945 32.2276H24.2425L29.9466 18.3198H30.1182V32.254H32.891V12.999H29.3524L23.2125 27.9736H22.9881L16.835 12.999H13.2964V32.254H16.0692V18.3067ZM40.6284 32.4516C42.8071 32.4516 44.2859 31.3058 44.9593 29.7648H45.1046V32.2672H47.8774V17.8194H45.0517V26.2747C45.0649 28.7244 43.2296 29.8965 41.6451 29.8965C39.9022 29.8965 38.6874 28.6322 38.6874 26.6698V17.8194H35.875V27.0123C35.875 30.5814 37.8424 32.4516 40.6284 32.4516ZM52.6839 28.1317C53.0272 29.5541 54.1099 30.2784 55.8 30.2784C57.6486 30.2784 58.8501 29.4092 58.8369 28.2897C58.8369 27.3942 58.1899 26.7752 56.7903 26.4591L54.3344 25.9191C51.6144 25.3133 50.3732 23.9567 50.3732 21.9022C50.3732 19.3471 52.6839 17.6218 55.9585 17.6218C59.0878 17.6218 60.8571 19.0837 61.4381 21.3358L58.8897 21.7836C58.5596 20.8222 57.7542 19.8476 55.9981 19.8476C54.4004 19.8476 53.1856 20.6378 53.1988 21.7441C53.1856 22.7319 53.8722 23.2587 55.4699 23.6406L57.7674 24.1674C60.4214 24.7733 61.7286 26.0376 61.7286 28.079C61.7286 30.6867 59.3123 32.5437 55.8132 32.5437C52.565 32.5437 50.4392 31.095 49.9639 28.54L52.6839 28.1317ZM67.1288 17.8194H64.3164V32.2672H67.1288V17.8194ZM76.5038 32.5569C79.9236 32.5569 82.1419 30.5024 82.4588 27.6971H79.7124C79.3559 29.2644 78.1411 30.1863 76.5302 30.1863C74.1403 30.1863 72.6086 28.1976 72.6086 25.0499C72.6086 21.9549 74.1799 20.0057 76.5302 20.0057C78.3259 20.0057 79.4087 21.1383 79.7124 22.4948H82.4588C82.1551 19.5842 79.7652 17.6482 76.4774 17.6482C72.3974 17.6482 69.7566 20.7169 69.7566 25.1289C69.7566 29.4619 72.3049 32.5569 76.5038 32.5569ZM90.13 32.254H87.2251V15.5014H81.2041V12.999H96.151V15.5014H90.13V32.254ZM101.076 32.5569C105.156 32.5569 107.823 29.5804 107.823 25.1025C107.823 20.6115 105.156 17.6218 101.076 17.6218C96.9961 17.6218 94.3289 20.5983 94.3289 25.1025C94.3289 29.5672 96.9961 32.5569 101.076 32.5569ZM101.089 19.9793C103.743 19.9793 104.984 22.3368 104.984 25.0894C104.984 27.8683 103.743 30.1863 101.089 30.1863C98.4221 30.1863 97.1809 27.8683 97.1809 25.0894C97.1809 22.3236 98.4221 19.9793 101.089 19.9793ZM120.077 29.6199C119.562 30.5419 118.532 32.0433 115.878 32.0433C112.458 32.0433 109.83 29.5936 109.83 24.984C109.83 20.3876 112.405 17.635 115.904 17.635C118.598 17.635 119.601 19.2681 120.103 20.1637H120.314V17.8194H123.074V32.5701C123.074 36.2578 120.222 37.9436 116.538 37.9436C113.078 37.9436 111.151 36.4421 110.385 34.7037L112.801 33.7027C113.303 34.5061 114.214 35.6783 116.564 35.6783C118.703 35.6783 120.261 34.6905 120.261 32.4647V29.6199H120.077ZM120.275 24.9445C120.275 22.0207 118.954 20.0188 116.498 20.0188C113.963 20.0188 112.669 22.1656 112.669 24.9445C112.669 27.7893 113.976 29.7121 116.498 29.7121C118.928 29.7121 120.275 27.921 120.275 24.9445ZM132.039 32.5569C135.195 32.5569 137.427 31.0028 138.074 28.6585L135.406 28.1844C134.891 29.5541 133.677 30.2389 132.066 30.2389C129.65 30.2389 128.025 28.6849 127.959 25.8928H138.258V24.8918C138.258 19.6764 135.129 17.635 131.841 17.635C127.801 17.635 125.147 20.7037 125.147 25.1421C125.147 29.6199 127.775 32.5569 132.039 32.5569ZM131.868 19.953C134.06 19.953 135.486 21.5729 135.499 23.7855H127.973C128.078 21.731 129.57 19.953 131.868 19.953ZM145.547 32.4516C143.315 32.5042 141.308 31.2267 141.322 28.6059H141.335V20.0715H139.209V17.8194H141.335V14.3556H144.147V17.8326H147.118V20.0847H144.147V28.0264C144.147 29.6463 144.966 29.9492 145.877 29.9492C146.314 29.9492 146.663 29.8744 146.852 29.834L146.867 29.8307L147.382 32.1487C147.052 32.2672 146.445 32.4384 145.547 32.4516ZM152.281 23.6801C152.281 21.3753 153.747 20.0583 155.754 20.0583C157.695 20.0583 158.857 21.2963 158.857 23.4036V32.254H161.669V23.0611C161.669 19.4525 159.688 17.6218 156.704 17.6218C154.446 17.6218 153.086 18.5964 152.413 20.1637H152.228V12.999H149.442V32.254H152.255V23.6801H152.281ZM176.682 28.6585C176.035 31.0028 173.804 32.5569 170.648 32.5569C166.37 32.5569 163.755 29.6199 163.755 25.1421C163.755 20.7037 166.409 17.635 170.45 17.635C173.738 17.635 176.867 19.6764 176.867 24.8918V25.8928H166.568C166.634 28.6849 168.258 30.2389 170.674 30.2389C172.285 30.2389 173.5 29.5541 174.015 28.1844L176.682 28.6585ZM174.094 23.7855C174.081 21.5729 172.655 19.953 170.463 19.953C168.179 19.953 166.687 21.731 166.568 23.7855H174.094ZM181.765 23.4431C181.765 21.5465 183.231 20.19 185.225 20.19C185.806 20.19 186.466 20.2954 186.691 20.3612V17.6745C186.413 17.635 185.845 17.6086 185.489 17.6086C183.786 17.6086 182.346 18.5701 181.805 20.1242H181.66V17.8325H178.94V32.2803H181.752V23.4431H181.765ZM15.7918 57.6067H14.5506V59.7798H13.3755V53.3132H15.805C17.2971 53.3132 18.0893 54.222 18.0893 55.46C18.0893 56.7111 17.2971 57.6067 15.7918 57.6067ZM15.6334 54.301H14.5506V56.6453H15.6334C16.518 56.6453 16.9009 56.1448 16.9009 55.46C16.9009 54.7751 16.518 54.301 15.6334 54.301ZM22.1163 57.4223H23.3047L24.5855 59.793H25.8926L24.493 57.2248C25.2588 56.9219 25.655 56.2634 25.655 55.3941C25.655 54.1561 24.8627 53.3264 23.3707 53.3264H20.9412V59.793H22.1163V57.4223ZM22.1031 54.301H23.1858C24.0573 54.301 24.4534 54.7093 24.4534 55.3941C24.4534 56.079 24.0573 56.4478 23.1858 56.4478H22.1031V54.301ZM29.7223 58.8184H32.7856V59.793H28.5471V53.3264H32.7724V54.301H29.7223V56.0658H32.5479V57.0536H29.7223V58.8184ZM38.0537 58.8975C37.3142 58.8975 36.7465 58.5682 36.7069 57.8834H35.5449C35.5977 59.174 36.5484 59.8984 38.0669 59.8984C39.6249 59.8984 40.5228 59.1214 40.5228 57.9887C40.5228 56.8693 39.5853 56.3556 38.6214 56.1185L38.0141 55.9605C37.4859 55.8288 36.9049 55.6049 36.9049 55.0649C36.9049 54.5776 37.3407 54.222 38.0801 54.222C38.7799 54.222 39.242 54.5513 39.308 55.0913H40.4436C40.4172 53.9981 39.4929 53.2211 38.1065 53.2211C36.7465 53.2211 35.7166 53.985 35.7298 55.1308C35.7298 56.0659 36.39 56.5927 37.4595 56.8693L38.1989 57.0536C38.8987 57.238 39.3609 57.4487 39.3609 57.9492C39.3477 58.5287 38.8195 58.8975 38.0537 58.8975ZM44.5502 58.8184H47.6267V59.793H43.375V53.3264H47.6003V54.301H44.5502V56.0658H47.3758V57.0536H44.5502V58.8184ZM51.786 55.381H51.8388L54.9021 59.793H55.9452V53.3264H54.7701V57.7384H54.7173L51.6672 53.3264H50.6108V59.793H51.786V55.381ZM61.9265 59.793H60.7514V54.301H58.7444V53.3264H63.9335V54.301H61.9265V59.793ZM70.9843 58.8184H67.9078V57.0536H70.7335V56.0658H67.9078V54.301H70.9579V53.3264H66.7327V59.793H70.9843V58.8184ZM76.2132 53.3264C78.141 53.3264 79.3161 54.5381 79.3161 56.5531C79.3161 58.5813 78.141 59.793 76.1604 59.793H73.9685V53.3264H76.2132ZM75.1437 54.3405V58.7789H76.1075C77.4675 58.7789 78.1542 58.0413 78.1542 56.5531C78.1542 55.078 77.4675 54.3405 76.1472 54.3405H75.1437ZM91.0941 58.0282C91.0941 57.0536 90.3943 56.4741 89.7077 56.4346V56.3687C90.3415 56.2238 90.8432 55.776 90.8432 54.9858C90.8432 54.0244 90.1434 53.3132 88.7438 53.3132H86.2615V59.7798H88.8891C90.3679 59.793 91.0941 59.0423 91.0941 58.0282ZM87.4366 54.2878H88.625C89.3116 54.2878 89.6681 54.6566 89.6681 55.1439C89.6681 55.7102 89.2059 56.0658 88.5986 56.0658H87.4366V54.2878ZM87.4366 58.8184V56.9219H88.7306C89.4568 56.9219 89.9058 57.3696 89.9058 57.9491C89.9058 58.4628 89.5492 58.8184 88.691 58.8184H87.4366ZM97.0225 59.793H95.8474V57.3828L93.4971 53.3264H94.8175L96.4019 56.1843H96.468L98.0524 53.3264H99.386L97.0225 57.3828V59.793ZM108.866 59.8853C110.57 59.8853 111.851 58.6473 111.851 56.5664C111.851 54.4723 110.57 53.2475 108.866 53.2475C107.163 53.2475 105.882 54.4855 105.882 56.5664C105.882 58.6473 107.163 59.8853 108.866 59.8853ZM108.866 54.2879C109.923 54.2879 110.662 55.0913 110.662 56.5532C110.662 58.0151 109.923 58.8185 108.866 58.8185C107.81 58.8185 107.071 58.0151 107.071 56.5532C107.071 55.0913 107.81 54.2879 108.866 54.2879ZM116.01 55.381H115.957V59.793H114.782V53.3264H115.825L118.888 57.7384H118.941V53.3264H120.116V59.793H119.06L116.01 55.381ZM124.922 59.793H126.084V54.301H128.091V53.3264H122.915V54.301H124.922V59.793ZM133.927 58.1994H131.485L130.957 59.793H129.702L131.986 53.3264H133.439L135.723 59.793H134.469L133.927 58.1994ZM132.726 54.6566H132.673L131.788 57.2643H133.597L132.726 54.6566ZM139.579 57.4223H140.767L142.048 59.793H143.355L141.956 57.2248C142.721 56.9219 143.118 56.2634 143.118 55.3941C143.118 54.1561 142.312 53.3264 140.833 53.3264H138.404V59.793H139.579V57.4223ZM139.566 54.301H140.648C141.52 54.301 141.916 54.7093 141.916 55.3941C141.916 56.079 141.52 56.4478 140.648 56.4478H139.566V54.301ZM145.996 53.3264H147.171V59.793H145.996V53.3264ZM153.073 59.8853C154.777 59.8853 156.057 58.6473 156.057 56.5664C156.057 54.4723 154.777 53.2475 153.073 53.2475C151.37 53.2475 150.089 54.4855 150.089 56.5664C150.089 58.6473 151.37 59.8853 153.073 59.8853ZM153.073 54.2879C154.13 54.2879 154.869 55.0913 154.869 56.5532C154.869 58.0151 154.13 58.8185 153.073 58.8185C152.017 58.8185 151.277 58.0151 151.277 56.5532C151.277 55.0913 152.017 54.2879 153.073 54.2879ZM164.164 58.8184H167.03V59.793H162.989V53.3264H164.164V58.8184ZM171.031 53.3264H169.856V59.793H171.031V53.3264ZM179.706 53.3264L177.421 59.793H175.969L173.685 53.3264H174.979L176.669 58.4233H176.735L178.412 53.3264H179.706ZM186.625 58.8184H183.548V57.0536H186.374V56.0658H183.548V54.301H186.598V53.3264H182.373V59.793H186.625V58.8184Z" fill="white"/>
</svg>
