<svg width="200" height="69" fill="none" xmlns="http://www.w3.org/2000/svg"><path fill-rule="evenodd" clip-rule="evenodd" d="M0 .97v67.769h200V.97H0zm197.689 65.55H2.311V44.946h195.378V66.52zM2.311 42.715V3.2h195.378v39.514H2.311zm61.648-28.281c0-.893.805-1.632 1.782-1.632.978 0 1.783.74 1.783 1.632 0 .892-.805 1.62-1.782 1.62-.978 0-1.783-.728-1.783-1.62zm.356 3.787h2.813v13.987h-2.813V18.221zm-47.48-4.667l6.153 14.498h.225l6.153-14.498h3.538v18.642h-2.772v-13.49h-.185L24.256 32.17h-2.297l-5.691-13.477h-.185v13.503H13.31V13.554h3.525zm28.217 4.667h2.825V32.21h-2.773v-2.423h-.145c-.673 1.492-2.152 2.601-4.33 2.601-2.787 0-4.754-1.798-4.754-5.266v-8.9h2.812v8.569c0 1.9 1.202 3.124 2.958 3.124 1.585 0 3.407-1.135 3.407-3.507v-8.186zm10.959 1.977c1.756 0 2.561.93 2.891 1.874l2.562-.434c-.581-2.18-2.35-3.595-5.48-3.595-3.261 0-5.585 1.67-5.585 4.144 0 1.989 1.241 3.302 3.961 3.889l2.456.522c1.4.294 2.047.893 2.047 1.773 0 1.083-1.202 1.925-3.05 1.925-1.69 0-2.773-.701-3.116-2.078l-2.72.395c.462 2.486 2.6 3.876 5.849 3.876 3.499 0 5.915-1.785 5.915-4.322 0-1.977-1.307-3.2-3.96-3.787l-2.298-.51c-1.598-.37-2.285-.893-2.271-1.836-.014-1.072 1.201-1.836 2.799-1.836zm20.466-2.168c-4.08 0-6.72 2.97-6.72 7.242 0 4.22 2.548 7.217 6.747 7.191 3.433 0 5.638-1.976 5.955-4.705h-2.747c-.356 1.518-1.571 2.41-3.182 2.41-2.39 0-3.921-1.925-3.921-4.973 0-2.996 1.558-4.883 3.921-4.883 1.783 0 2.879 1.096 3.182 2.41h2.747c-.304-2.818-2.694-4.692-5.982-4.692zm4.727-4.476h14.947v2.423h-6.02v16.231h-2.906V15.977h-6.02v-2.423zm19.871 4.476c-4.08 0-6.747 2.894-6.747 7.242 0 4.322 2.667 7.217 6.747 7.217s6.748-2.895 6.748-7.217c0-4.36-2.668-7.242-6.748-7.242zm.014 2.282c2.654 0 3.895 2.27 3.895 4.947 0 2.69-1.241 4.935-3.895 4.935-2.668 0-3.909-2.244-3.909-4.935 0-2.665 1.241-4.947 3.909-4.947zm9.282 14.255l2.416-.969c.502.778 1.413 1.913 3.763 1.913 2.139 0 3.698-.956 3.698-3.111v-2.754h-.185c-.515.892-1.532 2.346-4.199 2.346-3.42 0-6.048-2.372-6.048-6.835 0-4.45 2.575-7.114 6.074-7.114 2.694 0 3.697 1.58 4.199 2.448h.211v-2.27h2.76v14.293c0 3.57-2.852 5.203-6.536 5.203-3.459 0-5.387-1.467-6.153-3.15zm9.916-9.448c0-2.83-1.32-4.768-3.776-4.768-2.549 0-3.829 2.09-3.829 4.768 0 2.754 1.307 4.616 3.829 4.616 2.429 0 3.776-1.734 3.776-4.616zm11.555-7.09c-4.041 0-6.695 2.971-6.695 7.268 0 4.348 2.628 7.192 6.893 7.179 3.155 0 5.387-1.492 6.034-3.774l-2.667-.46c-.515 1.314-1.743 1.99-3.341 1.99-2.403 0-4.027-1.517-4.106-4.208h10.299v-.969c0-5.049-3.13-7.025-6.417-7.025zm.026 2.245c2.192 0 3.618 1.568 3.631 3.71h-7.526c.119-1.989 1.597-3.71 3.895-3.71zm15.223.128h-2.958v7.688c0 1.582.819 1.862 1.73 1.862.437 0 .786-.072.975-.112l.015-.003.515 2.244c-.33.115-.937.28-1.835.294-2.232.05-4.239-1.186-4.226-3.724V20.39h-2.125v-2.18h2.125v-3.34h2.813v3.353h2.971v2.18zm2.391 11.794h2.839v-8.301c0-2.231 1.465-3.506 3.472-3.506 1.941 0 3.103 1.185 3.103 3.238v8.569h2.813v-8.9c0-3.481-1.981-5.266-4.965-5.266-2.258 0-3.618.943-4.291 2.46h-.185v-6.936h-2.786v18.642zm14.274-6.899c0-4.297 2.654-7.267 6.694-7.267 3.288 0 6.417 1.976 6.417 7.025v.97h-10.299c.08 2.69 1.704 4.207 4.107 4.207 1.597 0 2.825-.676 3.34-1.99l2.667.46c-.646 2.282-2.878 3.774-6.034 3.774-4.278.013-6.892-2.83-6.892-7.179zm10.339-1.313c-.014-2.142-1.44-3.71-3.632-3.71-2.297 0-3.776 1.721-3.895 3.71h7.527zm7.578-5.763h-2.707v13.975h2.813v-8.543c0-1.823 1.465-3.15 3.459-3.15.581 0 1.241.103 1.466.166v-2.6a11.588 11.588 0 00-1.202-.064c-1.703 0-3.155.93-3.684 2.435h-.145V18.22zM15.779 52.533h-2.482v6.388h1.201v-2.155h1.268c1.532 0 2.35-.892 2.35-2.116 0-1.224-.818-2.117-2.337-2.117zm1.123 2.117c0 .676-.397 1.16-1.294 1.16h-1.096v-2.308h1.096c.897 0 1.294.472 1.294 1.148zm2.97-2.117h2.483c1.518 0 2.337.829 2.337 2.04 0 .867-.41 1.505-1.189 1.81l1.427 2.538h-1.334l-1.294-2.333h-1.228v2.333h-1.202v-6.388zm2.311 3.086c.885 0 1.294-.37 1.294-1.046 0-.675-.396-1.07-1.294-1.07h-1.096v2.116h1.096zm8.648-3.086h-4.305v6.388h4.33v-.969h-3.128v-1.747h2.878v-.969h-2.878v-1.734h3.102v-.969zm4.292.88c-.753 0-1.189.357-1.202.828 0 .536.581.753 1.122.88l.621.153c.99.23 1.941.727 1.941 1.836 0 1.122-.924 1.887-2.509 1.887-1.545 0-2.522-.714-2.574-1.989h1.175c.052.676.633.995 1.373.995.779 0 1.32-.37 1.32-.906 0-.497-.475-.714-1.188-.88l-.753-.19c-1.082-.268-1.77-.804-1.77-1.722 0-1.135 1.044-1.887 2.43-1.887 1.413 0 2.364.765 2.39 1.849h-1.148c-.04-.523-.515-.855-1.228-.855zm8.582-.88H39.4v6.388h4.331v-.969h-3.13v-1.747h2.88v-.969H40.6v-1.734h3.104v-.969zm7.368 6.388h-1.057L46.9 54.573h-.053v4.348h-1.201v-6.388h1.07l3.115 4.36h.053v-4.36h1.189v6.388zm7.038-6.388h-5.282v.97h2.047v5.418h1.188v-5.419h2.047v-.969zm1.73 0h4.305v.97h-3.103v1.733h2.878v.97h-2.878v1.746h3.129v.97h-4.33v-6.389zm6.259 0v6.388h2.244c2.007 0 3.209-1.198 3.209-3.2 0-1.99-1.202-3.188-3.17-3.188H66.1zm4.265 3.188c0 1.466-.7 2.193-2.087 2.193v.013h-.977V53.54h1.017c1.347 0 2.047.714 2.047 2.18zm6.033-3.188h2.535c1.44 0 2.14.701 2.14 1.658 0 .778-.516 1.211-1.163 1.364v.064c.7.038 1.413.6 1.413 1.568 0 .995-.74 1.747-2.258 1.747h-2.68v-6.4h.013zm2.377 2.716c.62 0 1.096-.344 1.096-.905 0-.498-.37-.855-1.07-.855h-1.215v1.76h1.189zm.105 2.703c.872 0 1.228-.357 1.228-.867 0-.574-.462-1.007-1.201-1.007h-1.32v1.874h1.293zm6.748-2.588l-1.624-2.83H82.67l2.403 4.003v2.384h1.202v-2.384l2.403-4.004h-1.36l-1.624 2.83h-.066zm10.457 3.634c-1.743 0-3.037-1.224-3.037-3.277 0-2.066 1.307-3.277 3.037-3.277s3.037 1.211 3.037 3.277c.013 2.066-1.294 3.277-3.037 3.277zm0-5.521c-1.07 0-1.835.79-1.835 2.244 0 1.454.766 2.244 1.835 2.244 1.083 0 1.835-.79 1.835-2.244 0-1.454-.752-2.244-1.835-2.244zm9.27 5.444h1.056v-6.388h-1.188v4.36h-.053l-3.116-4.36h-1.07v6.388h1.202v-4.348h.053l3.116 4.348zm2.811-6.388h5.282v.97h-2.047v5.418h-1.188v-5.419h-2.047v-.969zm8.107 0l-2.324 6.388h1.281l.541-1.58h2.483l.554 1.58h1.281l-2.337-6.388h-1.479zm.766 1.3l.898 2.576h-1.849l.898-2.575h.053zm4.649-1.3h2.482c1.518 0 2.337.829 2.337 2.04 0 .867-.409 1.505-1.188 1.81l1.426 2.538h-1.334l-1.294-2.333h-1.228v2.333h-1.201v-6.388zm2.297 3.086c.885 0 1.294-.37 1.294-1.046 0-.675-.396-1.07-1.294-1.07h-1.096v2.116h1.096zm4.344 3.302h1.202v-6.388h-1.202v6.388zm6.1.077c-1.742 0-3.036-1.224-3.036-3.277 0-2.066 1.307-3.277 3.036-3.277 1.73 0 3.037 1.211 3.037 3.277s-1.307 3.277-3.037 3.277zm0-5.521c-1.069 0-1.835.79-1.835 2.244 0 1.454.766 2.244 1.835 2.244 1.083 0 1.836-.79 1.836-2.244 0-1.454-.753-2.244-1.836-2.244zm10.761.012c.805 0 1.426.434 1.571 1.199v.012h1.188c-.198-1.415-1.333-2.244-2.799-2.244-1.73 0-3.037 1.212-3.037 3.277 0 2.053 1.294 3.277 3.037 3.277 1.571 0 2.615-.982 2.799-2.206h-1.201c-.145.753-.779 1.173-1.571 1.173-1.07 0-1.836-.777-1.836-2.244 0-1.44.766-2.244 1.849-2.244zm4.609-.956h2.482c1.519 0 2.337.829 2.337 2.04 0 .867-.409 1.505-1.188 1.81l1.426 2.538h-1.334l-1.294-2.333H151v2.333h-1.201v-6.388zm2.311 3.086c.884 0 1.294-.37 1.294-1.046 0-.675-.397-1.07-1.294-1.07h-1.096v2.116h1.096zm8.634-3.086h-4.305v6.388h4.331v-.969h-3.129v-1.747h2.878v-.969h-2.878v-1.734h3.103v-.969zm1.52 6.388l2.324-6.388h1.478l2.337 6.388h-1.28l-.555-1.58h-2.482l-.542 1.58h-1.28zm3.987-2.512l-.898-2.575h-.052l-.898 2.575h1.848zm7.949-3.876h-5.282v.97h2.047v5.418h1.188v-5.419h2.047v-.969zm1.728 0h4.305v.97h-3.103v1.733h2.878v.97h-2.878v1.746h3.129v.97h-4.331v-6.389zm7.395 1.708c.014-.471.449-.828 1.202-.828.713 0 1.188.331 1.228.854h1.149c-.027-1.084-.977-1.849-2.39-1.849-1.387 0-2.43.752-2.43 1.887 0 .918.687 1.454 1.77 1.721l.752.192c.713.165 1.189.382 1.189.88 0 .535-.542.905-1.321.905-.739 0-1.32-.32-1.373-.995h-1.175c.053 1.275 1.03 1.99 2.575 1.99 1.584 0 2.508-.766 2.508-1.888 0-1.11-.95-1.606-1.941-1.836l-.62-.153c-.542-.127-1.123-.344-1.123-.88z" fill="#fff"/></svg>