<svg width="200" height="46" fill="none" xmlns="http://www.w3.org/2000/svg"><path fill-rule="evenodd" clip-rule="evenodd" d="M0 45.54V0h200v45.54H0zM2.31 2.31v40.92H197.69V2.31H2.311zm63.432 9.943c-.977 0-1.782.766-1.782 1.69 0 .925.805 1.677 1.782 1.677s1.783-.752 1.783-1.677c0-.924-.806-1.69-1.783-1.69zm1.387 5.612h-2.813V32.35h2.813V17.865zm-44.14 10.18l-6.154-15.013H13.31v19.304h2.772V18.354h.185l5.691 13.956h2.298l5.69-13.943h.185v13.97h2.773V13.031h-3.538l-6.153 15.013h-.225zm24.888-10.18h-2.825v8.477c0 2.456-1.822 3.631-3.407 3.631-1.756 0-2.958-1.268-2.958-3.235v-8.873h-2.812v9.216c0 3.592 1.967 5.454 4.753 5.454 2.18 0 3.658-1.15 4.331-2.694h.145v2.509h2.773V17.865zm11.026 3.988c-.33-.978-1.136-1.941-2.892-1.941-1.598 0-2.812.792-2.799 1.9-.013.978.673 1.52 2.271 1.902l2.298.528c2.654.608 3.96 1.875 3.96 3.922 0 2.628-2.416 4.476-5.915 4.476-3.248 0-5.387-1.44-5.849-4.014l2.72-.41c.343 1.427 1.426 2.153 3.116 2.153 1.849 0 3.05-.871 3.05-1.994 0-.91-.647-1.531-2.046-1.835l-2.456-.541C51.64 25.39 50.4 24.03 50.4 21.97c0-2.561 2.323-4.29 5.585-4.29 3.13 0 4.898 1.465 5.48 3.723l-2.562.448zm10.854 3.314c0-4.424 2.64-7.5 6.72-7.5 3.288 0 5.678 1.94 5.982 4.859h-2.747c-.303-1.36-1.4-2.496-3.182-2.496-2.363 0-3.921 1.955-3.921 5.057 0 3.156 1.531 5.15 3.921 5.15 1.611 0 2.826-.924 3.182-2.495h2.747c-.317 2.825-2.522 4.872-5.955 4.872-4.2.026-6.748-3.077-6.748-7.447zM96.15 13.032H81.204v2.509h6.021V32.35h2.905V15.54h6.021v-2.509zM94.33 25.167c0-4.503 2.667-7.5 6.747-7.5s6.747 2.984 6.747 7.5c0 4.476-2.667 7.473-6.747 7.473s-6.747-2.997-6.747-7.473zm10.655-.014c0-2.772-1.241-5.123-3.895-5.123-2.667 0-3.908 2.364-3.908 5.123 0 2.787 1.241 5.11 3.908 5.11 2.654 0 3.895-2.324 3.895-5.11zm7.804 8.636l-2.416 1.003c.765 1.743 2.693 3.262 6.153 3.262 3.684 0 6.536-1.69 6.536-5.387V17.865h-2.76v2.35h-.211c-.502-.898-1.506-2.535-4.199-2.535-3.499 0-6.074 2.76-6.074 7.368 0 4.621 2.628 7.077 6.047 7.077 2.668 0 3.684-1.505 4.199-2.43h.185v2.853c0 2.231-1.558 3.221-3.697 3.221-2.35 0-3.261-1.175-3.763-1.98zm3.723-13.719c2.456 0 3.777 2.007 3.777 4.938 0 2.984-1.347 4.78-3.777 4.78-2.522 0-3.829-1.928-3.829-4.78 0-2.773 1.281-4.938 3.829-4.938zm8.636 5.123c0-4.45 2.654-7.526 6.694-7.526 3.288 0 6.417 2.046 6.417 7.275v1.004h-10.299c.08 2.786 1.704 4.357 4.107 4.357 1.597 0 2.825-.7 3.34-2.06l2.668.476c-.647 2.363-2.879 3.908-6.035 3.908-4.264.013-6.892-2.931-6.892-7.434zm10.352-1.36c-.013-2.218-1.439-3.842-3.631-3.842-2.298 0-3.777 1.782-3.895 3.842h7.526zm8.635-3.71h2.958v-2.258h-2.971v-3.473h-2.813v3.46h-2.125v2.258h2.125v8.556c-.013 2.627 1.994 3.908 4.226 3.855.898-.013 1.505-.184 1.835-.303l-.515-2.324-.015.003c-.189.04-.538.116-.975.116-.911 0-1.73-.29-1.73-1.928v-7.962zm8.16 12.213h-2.812V13.032h2.786v7.183h.185c.673-1.571 2.033-2.548 4.291-2.548 2.984 0 4.965 1.848 4.965 5.453v9.216h-2.813v-8.873c0-2.125-1.162-3.353-3.103-3.353-2.007 0-3.472 1.32-3.472 3.63v8.596h-.027zm18.156-14.67c-4.041 0-6.695 3.077-6.695 7.527 0 4.503 2.615 7.447 6.893 7.434 3.155 0 5.387-1.545 6.034-3.908l-2.667-.476c-.515 1.36-1.743 2.06-3.341 2.06-2.403 0-4.027-1.571-4.106-4.357h10.299v-1.004c0-5.229-3.13-7.275-6.417-7.275zm.013 2.325c2.192 0 3.618 1.624 3.631 3.842h-7.526c.118-2.06 1.597-3.842 3.895-3.842zm8.503-2.126h2.707v2.297h.145c.528-1.558 1.981-2.522 3.684-2.522.357 0 .911.027 1.202.066V20.4c-.225-.066-.885-.172-1.466-.172-1.994 0-3.459 1.374-3.459 3.262v8.846h-2.813V17.865z" fill="#fff"/></svg>